  0
SECTION
  2
BLOCKS
  0
ENDSEC
  0
SECTION
  2
ENTITIES
  0
LINE
  8
0
 10
-6.928
 11
0
 20
-6
 21
6
  0
LINE
  8
0
 10
0
 11
6.928
 20
6
 21
-6
  0
LINE
  8
0
 10
6.928
 11
-6.928
 20
-6
 21
-6
  0
LINE
  8
0
 10
-1.7
 11
-1.674
 20
0
 21
0.295
  0
LINE
  8
0
 10
-1.674
 11
-1.597
 20
0.295
 21
0.581
  0
LINE
  8
0
 10
-1.597
 11
-1.472
 20
0.581
 21
0.85
  0
LINE
  8
0
 10
-1.472
 11
-1.302
 20
0.85
 21
1.093
  0
LINE
  8
0
 10
-1.302
 11
-1.093
 20
1.093
 21
1.302
  0
LINE
  8
0
 10
-1.093
 11
-0.85
 20
1.302
 21
1.472
  0
LINE
  8
0
 10
-0.85
 11
-0.581
 20
1.472
 21
1.597
  0
LINE
  8
0
 10
-0.581
 11
-0.295
 20
1.597
 21
1.674
  0
LINE
  8
0
 10
-0.295
 11
0
 20
1.674
 21
1.7
  0
LINE
  8
0
 10
0
 11
0.295
 20
1.7
 21
1.674
  0
LINE
  8
0
 10
0.295
 11
0.581
 20
1.674
 21
1.597
  0
LINE
  8
0
 10
0.581
 11
0.85
 20
1.597
 21
1.472
  0
LINE
  8
0
 10
0.85
 11
1.093
 20
1.472
 21
1.302
  0
LINE
  8
0
 10
1.093
 11
1.302
 20
1.302
 21
1.093
  0
LINE
  8
0
 10
1.302
 11
1.472
 20
1.093
 21
0.85
  0
LINE
  8
0
 10
1.472
 11
1.597
 20
0.85
 21
0.581
  0
LINE
  8
0
 10
1.597
 11
1.674
 20
0.581
 21
0.295
  0
LINE
  8
0
 10
1.674
 11
1.7
 20
0.295
 21
0
  0
LINE
  8
0
 10
1.7
 11
1.674
 20
0
 21
-0.295
  0
LINE
  8
0
 10
1.674
 11
1.597
 20
-0.295
 21
-0.581
  0
LINE
  8
0
 10
1.597
 11
1.472
 20
-0.581
 21
-0.85
  0
LINE
  8
0
 10
1.472
 11
1.302
 20
-0.85
 21
-1.093
  0
LINE
  8
0
 10
1.302
 11
1.093
 20
-1.093
 21
-1.302
  0
LINE
  8
0
 10
1.093
 11
0.85
 20
-1.302
 21
-1.472
  0
LINE
  8
0
 10
0.85
 11
0.581
 20
-1.472
 21
-1.597
  0
LINE
  8
0
 10
0.581
 11
0.295
 20
-1.597
 21
-1.674
  0
LINE
  8
0
 10
0.295
 11
0
 20
-1.674
 21
-1.7
  0
LINE
  8
0
 10
0
 11
-0.295
 20
-1.7
 21
-1.674
  0
LINE
  8
0
 10
-0.295
 11
-0.581
 20
-1.674
 21
-1.597
  0
LINE
  8
0
 10
-0.581
 11
-0.85
 20
-1.597
 21
-1.472
  0
LINE
  8
0
 10
-0.85
 11
-1.093
 20
-1.472
 21
-1.302
  0
LINE
  8
0
 10
-1.093
 11
-1.302
 20
-1.302
 21
-1.093
  0
LINE
  8
0
 10
-1.302
 11
-1.472
 20
-1.093
 21
-0.85
  0
LINE
  8
0
 10
-1.472
 11
-1.597
 20
-0.85
 21
-0.581
  0
LINE
  8
0
 10
-1.597
 11
-1.674
 20
-0.581
 21
-0.295
  0
LINE
  8
0
 10
-1.674
 11
-1.7
 20
-0.295
 21
0
  0
ENDSEC
  0
SECTION
  2
OBJECTS
  0
DICTIONARY
  0
ENDSEC
  0
EOF
