  0
SECTION
  2
BLOCKS
  0
ENDSEC
  0
SECTION
  2
ENTITIES
  0
LINE
  8
0
 10
-59.8
 11
-59.8
 20
-29.4
 21
25
  0
LINE
  8
0
 10
-59.8
 11
-59.779
 20
25
 21
25.243
  0
LINE
  8
0
 10
-59.779
 11
-59.716
 20
25.243
 21
25.479
  0
LINE
  8
0
 10
-59.716
 11
-59.612
 20
25.479
 21
25.7
  0
LINE
  8
0
 10
-59.612
 11
-59.472
 20
25.7
 21
25.9
  0
LINE
  8
0
 10
-59.472
 11
-59.3
 20
25.9
 21
26.072
  0
LINE
  8
0
 10
-59.3
 11
-59.1
 20
26.072
 21
26.212
  0
LINE
  8
0
 10
-59.1
 11
-58.879
 20
26.212
 21
26.316
  0
LINE
  8
0
 10
-58.879
 11
-58.643
 20
26.316
 21
26.379
  0
LINE
  8
0
 10
-58.643
 11
-58.4
 20
26.379
 21
26.4
  0
LINE
  8
0
 10
-58.4
 11
58.4
 20
26.4
 21
26.4
  0
LINE
  8
0
 10
58.4
 11
58.643
 20
26.4
 21
26.379
  0
LINE
  8
0
 10
58.643
 11
58.879
 20
26.379
 21
26.316
  0
LINE
  8
0
 10
58.879
 11
59.1
 20
26.316
 21
26.212
  0
LINE
  8
0
 10
59.1
 11
59.3
 20
26.212
 21
26.072
  0
LINE
  8
0
 10
59.3
 11
59.472
 20
26.072
 21
25.9
  0
LINE
  8
0
 10
59.472
 11
59.612
 20
25.9
 21
25.7
  0
LINE
  8
0
 10
59.612
 11
59.716
 20
25.7
 21
25.479
  0
LINE
  8
0
 10
59.716
 11
59.779
 20
25.479
 21
25.243
  0
LINE
  8
0
 10
59.779
 11
59.8
 20
25.243
 21
25
  0
LINE
  8
0
 10
59.8
 11
59.8
 20
25
 21
-29.4
  0
LINE
  8
0
 10
59.8
 11
54.2
 20
-29.4
 21
-29.4
  0
LINE
  8
0
 10
54.2
 11
54.148
 20
-29.4
 21
-29.244
  0
LINE
  8
0
 10
54.148
 11
53.94
 20
-29.244
 21
-29.085
  0
LINE
  8
0
 10
53.94
 11
53.577
 20
-29.085
 21
-28.932
  0
LINE
  8
0
 10
53.577
 11
53.057
 20
-28.932
 21
-28.776
  0
LINE
  8
0
 10
53.057
 11
52.434
 20
-28.776
 21
-28.623
  0
LINE
  8
0
 10
52.434
 11
51.654
 20
-28.623
 21
-28.473
  0
LINE
  8
0
 10
51.654
 11
50.771
 20
-28.473
 21
-28.326
  0
LINE
  8
0
 10
50.771
 11
49.732
 20
-28.326
 21
-28.179
  0
LINE
  8
0
 10
49.732
 11
48.537
 20
-28.179
 21
-28.038
  0
LINE
  8
0
 10
48.537
 11
47.239
 20
-28.038
 21
-27.9
  0
LINE
  8
0
 10
47.239
 11
45.836
 20
-27.9
 21
-27.765
  0
LINE
  8
0
 10
45.836
 11
44.278
 20
-27.765
 21
-27.636
  0
LINE
  8
0
 10
44.278
 11
42.615
 20
-27.636
 21
-27.513
  0
LINE
  8
0
 10
42.615
 11
40.849
 20
-27.513
 21
-27.393
  0
LINE
  8
0
 10
40.849
 11
38.979
 20
-27.393
 21
-27.279
  0
LINE
  8
0
 10
38.979
 11
37.005
 20
-27.279
 21
-27.171
  0
LINE
  8
0
 10
37.005
 11
34.927
 20
-27.171
 21
-27.069
  0
LINE
  8
0
 10
34.927
 11
32.797
 20
-27.069
 21
-26.973
  0
LINE
  8
0
 10
32.797
 11
30.563
 20
-26.973
 21
-26.883
  0
LINE
  8
0
 10
30.563
 11
28.225
 20
-26.883
 21
-26.802
  0
LINE
  8
0
 10
28.225
 11
25.835
 20
-26.802
 21
-26.727
  0
LINE
  8
0
 10
25.835
 11
23.394
 20
-26.727
 21
-26.658
  0
LINE
  8
0
 10
23.394
 11
20.848
 20
-26.658
 21
-26.598
  0
LINE
  8
0
 10
20.848
 11
18.303
 20
-26.598
 21
-26.547
  0
LINE
  8
0
 10
18.303
 11
15.705
 20
-26.547
 21
-26.502
  0
LINE
  8
0
 10
15.705
 11
13.056
 20
-26.502
 21
-26.466
  0
LINE
  8
0
 10
13.056
 11
10.354
 20
-26.466
 21
-26.436
  0
LINE
  8
0
 10
10.354
 11
7.705
 20
-26.436
 21
-26.415
  0
LINE
  8
0
 10
7.705
 11
4.951
 20
-26.415
 21
-26.403
  0
LINE
  8
0
 10
4.951
 11
2.25
 20
-26.403
 21
-26.4
  0
LINE
  8
0
 10
2.25
 11
0
 20
-26.4
 21
-26.402
  0
LINE
  8
0
 10
0
 11
-2.25
 20
-26.402
 21
-26.4
  0
LINE
  8
0
 10
-2.25
 11
-4.951
 20
-26.4
 21
-26.403
  0
LINE
  8
0
 10
-4.951
 11
-7.705
 20
-26.403
 21
-26.415
  0
LINE
  8
0
 10
-7.705
 11
-10.354
 20
-26.415
 21
-26.436
  0
LINE
  8
0
 10
-10.354
 11
-13.056
 20
-26.436
 21
-26.466
  0
LINE
  8
0
 10
-13.056
 11
-15.705
 20
-26.466
 21
-26.502
  0
LINE
  8
0
 10
-15.705
 11
-18.303
 20
-26.502
 21
-26.547
  0
LINE
  8
0
 10
-18.303
 11
-20.848
 20
-26.547
 21
-26.598
  0
LINE
  8
0
 10
-20.848
 11
-23.394
 20
-26.598
 21
-26.658
  0
LINE
  8
0
 10
-23.394
 11
-25.835
 20
-26.658
 21
-26.727
  0
LINE
  8
0
 10
-25.835
 11
-28.225
 20
-26.727
 21
-26.802
  0
LINE
  8
0
 10
-28.225
 11
-30.563
 20
-26.802
 21
-26.883
  0
LINE
  8
0
 10
-30.563
 11
-32.797
 20
-26.883
 21
-26.973
  0
LINE
  8
0
 10
-32.797
 11
-34.927
 20
-26.973
 21
-27.069
  0
LINE
  8
0
 10
-34.927
 11
-37.005
 20
-27.069
 21
-27.171
  0
LINE
  8
0
 10
-37.005
 11
-38.979
 20
-27.171
 21
-27.279
  0
LINE
  8
0
 10
-38.979
 11
-40.849
 20
-27.279
 21
-27.393
  0
LINE
  8
0
 10
-40.849
 11
-42.615
 20
-27.393
 21
-27.513
  0
LINE
  8
0
 10
-42.615
 11
-44.278
 20
-27.513
 21
-27.636
  0
LINE
  8
0
 10
-44.278
 11
-45.836
 20
-27.636
 21
-27.765
  0
LINE
  8
0
 10
-45.836
 11
-47.239
 20
-27.765
 21
-27.9
  0
LINE
  8
0
 10
-47.239
 11
-48.537
 20
-27.9
 21
-28.038
  0
LINE
  8
0
 10
-48.537
 11
-49.732
 20
-28.038
 21
-28.179
  0
LINE
  8
0
 10
-49.732
 11
-50.771
 20
-28.179
 21
-28.326
  0
LINE
  8
0
 10
-50.771
 11
-51.654
 20
-28.326
 21
-28.473
  0
LINE
  8
0
 10
-51.654
 11
-52.434
 20
-28.473
 21
-28.623
  0
LINE
  8
0
 10
-52.434
 11
-53.057
 20
-28.623
 21
-28.776
  0
LINE
  8
0
 10
-53.057
 11
-53.577
 20
-28.776
 21
-28.932
  0
LINE
  8
0
 10
-53.577
 11
-53.94
 20
-28.932
 21
-29.085
  0
LINE
  8
0
 10
-53.94
 11
-54.148
 20
-29.085
 21
-29.244
  0
LINE
  8
0
 10
-54.148
 11
-54.2
 20
-29.244
 21
-29.4
  0
LINE
  8
0
 10
-54.2
 11
-59.8
 20
-29.4
 21
-29.4
  0
LINE
  8
0
 10
-58.337
 11
-58.337
 20
-19.337
 21
-16.663
  0
LINE
  8
0
 10
-58.337
 11
-55.663
 20
-16.663
 21
-16.663
  0
LINE
  8
0
 10
-55.663
 11
-55.663
 20
-16.663
 21
-19.337
  0
LINE
  8
0
 10
-55.663
 11
-58.337
 20
-19.337
 21
-19.337
  0
LINE
  8
0
 10
-58.337
 11
-58.337
 20
16.663
 21
19.337
  0
LINE
  8
0
 10
-58.337
 11
-55.663
 20
19.337
 21
19.337
  0
LINE
  8
0
 10
-55.663
 11
-55.663
 20
19.337
 21
16.663
  0
LINE
  8
0
 10
-55.663
 11
-58.337
 20
16.663
 21
16.663
  0
LINE
  8
0
 10
-47.137
 11
-47.137
 20
-24.937
 21
-22.263
  0
LINE
  8
0
 10
-47.137
 11
-44.463
 20
-22.263
 21
-22.263
  0
LINE
  8
0
 10
-44.463
 11
-44.463
 20
-22.263
 21
-24.937
  0
LINE
  8
0
 10
-44.463
 11
-47.137
 20
-24.937
 21
-24.937
  0
LINE
  8
0
 10
-47.137
 11
-47.137
 20
22.263
 21
24.937
  0
LINE
  8
0
 10
-47.137
 11
-44.463
 20
24.937
 21
24.937
  0
LINE
  8
0
 10
-44.463
 11
-44.463
 20
24.937
 21
22.263
  0
LINE
  8
0
 10
-44.463
 11
-47.137
 20
22.263
 21
22.263
  0
LINE
  8
0
 10
44.463
 11
44.463
 20
-24.937
 21
-22.263
  0
LINE
  8
0
 10
44.463
 11
47.137
 20
-22.263
 21
-22.263
  0
LINE
  8
0
 10
47.137
 11
47.137
 20
-22.263
 21
-24.937
  0
LINE
  8
0
 10
47.137
 11
44.463
 20
-24.937
 21
-24.937
  0
LINE
  8
0
 10
44.463
 11
44.463
 20
22.263
 21
24.937
  0
LINE
  8
0
 10
44.463
 11
47.137
 20
24.937
 21
24.937
  0
LINE
  8
0
 10
47.137
 11
47.137
 20
24.937
 21
22.263
  0
LINE
  8
0
 10
47.137
 11
44.463
 20
22.263
 21
22.263
  0
LINE
  8
0
 10
55.663
 11
55.663
 20
-19.337
 21
-16.663
  0
LINE
  8
0
 10
55.663
 11
58.337
 20
-16.663
 21
-16.663
  0
LINE
  8
0
 10
58.337
 11
58.337
 20
-16.663
 21
-19.337
  0
LINE
  8
0
 10
58.337
 11
55.663
 20
-19.337
 21
-19.337
  0
LINE
  8
0
 10
55.663
 11
55.663
 20
16.663
 21
19.337
  0
LINE
  8
0
 10
55.663
 11
58.337
 20
19.337
 21
19.337
  0
LINE
  8
0
 10
58.337
 11
58.337
 20
19.337
 21
16.663
  0
LINE
  8
0
 10
58.337
 11
55.663
 20
16.663
 21
16.663
  0
ENDSEC
  0
SECTION
  2
OBJECTS
  0
DICTIONARY
  0
ENDSEC
  0
EOF
