  0
SECTION
  2
BLOCKS
  0
ENDSEC
  0
SECTION
  2
ENTITIES
  0
LINE
  8
0
 10
-11.989
 11
-11.989
 20
-25.064
 21
-22.136
  0
LINE
  8
0
 10
-11.989
 11
-11.964
 20
-22.136
 21
-22.136
  0
LINE
  8
0
 10
-11.964
 11
-11.964
 20
-22.136
 21
-17.994
  0
LINE
  8
0
 10
-11.964
 11
-11.9
 20
-17.994
 21
-18
  0
LINE
  8
0
 10
-11.9
 11
-11.161
 20
-18
 21
-17.928
  0
LINE
  8
0
 10
-11.161
 11
-10.421
 20
-17.928
 21
-17.73
  0
LINE
  8
0
 10
-10.421
 11
-9.699
 20
-17.73
 21
-17.388
  0
LINE
  8
0
 10
-9.699
 11
-8.993
 20
-17.388
 21
-16.92
  0
LINE
  8
0
 10
-8.993
 11
-8.304
 20
-16.92
 21
-16.308
  0
LINE
  8
0
 10
-8.304
 11
-7.65
 20
-16.308
 21
-15.588
  0
LINE
  8
0
 10
-7.65
 11
-7.021
 20
-15.588
 21
-14.742
  0
LINE
  8
0
 10
-7.021
 11
-6.435
 20
-14.742
 21
-13.788
  0
LINE
  8
0
 10
-6.435
 11
-5.89
 20
-13.788
 21
-12.726
  0
LINE
  8
0
 10
-5.89
 11
-5.389
 20
-12.726
 21
-11.574
  0
LINE
  8
0
 10
-5.389
 11
-4.938
 20
-11.574
 21
-10.332
  0
LINE
  8
0
 10
-4.938
 11
-4.539
 20
-10.332
 21
-9
  0
LINE
  8
0
 10
-4.539
 11
-4.199
 20
-9
 21
-7.614
  0
LINE
  8
0
 10
-4.199
 11
-3.91
 20
-7.614
 21
-6.156
  0
LINE
  8
0
 10
-3.91
 11
-3.689
 20
-6.156
 21
-4.662
  0
LINE
  8
0
 10
-3.689
 11
-3.527
 20
-4.662
 21
-3.132
  0
LINE
  8
0
 10
-3.527
 11
-3.434
 20
-3.132
 21
-1.566
  0
LINE
  8
0
 10
-3.434
 11
-3.4
 20
-1.566
 21
0
  0
LINE
  8
0
 10
-3.4
 11
-3.434
 20
0
 21
1.566
  0
LINE
  8
0
 10
-3.434
 11
-3.527
 20
1.566
 21
3.132
  0
LINE
  8
0
 10
-3.527
 11
-3.689
 20
3.132
 21
4.662
  0
LINE
  8
0
 10
-3.689
 11
-3.91
 20
4.662
 21
6.156
  0
LINE
  8
0
 10
-3.91
 11
-4.199
 20
6.156
 21
7.614
  0
LINE
  8
0
 10
-4.199
 11
-4.539
 20
7.614
 21
9
  0
LINE
  8
0
 10
-4.539
 11
-4.938
 20
9
 21
10.332
  0
LINE
  8
0
 10
-4.938
 11
-5.389
 20
10.332
 21
11.574
  0
LINE
  8
0
 10
-5.389
 11
-5.89
 20
11.574
 21
12.726
  0
LINE
  8
0
 10
-5.89
 11
-6.435
 20
12.726
 21
13.788
  0
LINE
  8
0
 10
-6.435
 11
-7.021
 20
13.788
 21
14.742
  0
LINE
  8
0
 10
-7.021
 11
-7.65
 20
14.742
 21
15.588
  0
LINE
  8
0
 10
-7.65
 11
-8.304
 20
15.588
 21
16.308
  0
LINE
  8
0
 10
-8.304
 11
-8.993
 20
16.308
 21
16.92
  0
LINE
  8
0
 10
-8.993
 11
-9.699
 20
16.92
 21
17.388
  0
LINE
  8
0
 10
-9.699
 11
-10.421
 20
17.388
 21
17.73
  0
LINE
  8
0
 10
-10.421
 11
-11.161
 20
17.73
 21
17.928
  0
LINE
  8
0
 10
-11.161
 11
-11.9
 20
17.928
 21
18
  0
LINE
  8
0
 10
-11.9
 11
-11.964
 20
18
 21
17.994
  0
LINE
  8
0
 10
-11.964
 11
-11.964
 20
17.994
 21
22.136
  0
LINE
  8
0
 10
-11.964
 11
-11.989
 20
22.136
 21
22.136
  0
LINE
  8
0
 10
-11.989
 11
-11.989
 20
22.136
 21
25.064
  0
LINE
  8
0
 10
-11.989
 11
-9.011
 20
25.064
 21
25.064
  0
LINE
  8
0
 10
-9.011
 11
-9.011
 20
25.064
 21
22.136
  0
LINE
  8
0
 10
-9.011
 11
-9.033
 20
22.136
 21
22.136
  0
LINE
  8
0
 10
-9.033
 11
-9
 20
22.136
 21
21.6
  0
LINE
  8
0
 10
-9
 11
-8.901
 20
21.6
 21
20.999
  0
LINE
  8
0
 10
-8.901
 11
-8.729
 20
20.999
 21
20.413
  0
LINE
  8
0
 10
-8.729
 11
-8.494
 20
20.413
 21
19.84
  0
LINE
  8
0
 10
-8.494
 11
-8.187
 20
19.84
 21
19.281
  0
LINE
  8
0
 10
-8.187
 11
-7.826
 20
19.281
 21
18.75
  0
LINE
  8
0
 10
-7.826
 11
-7.401
 20
18.75
 21
18.239
  0
LINE
  8
0
 10
-7.401
 11
-6.922
 20
18.239
 21
17.763
  0
LINE
  8
0
 10
-6.922
 11
-6.389
 20
17.763
 21
17.322
  0
LINE
  8
0
 10
-6.389
 11
-5.81
 20
17.322
 21
16.915
  0
LINE
  8
0
 10
-5.81
 11
-5.187
 20
16.915
 21
16.549
  0
LINE
  8
0
 10
-5.187
 11
-4.518
 20
16.549
 21
16.225
  0
LINE
  8
0
 10
-4.518
 11
-3.822
 20
16.225
 21
15.949
  0
LINE
  8
0
 10
-3.822
 11
-3.09
 20
15.949
 21
15.714
  0
LINE
  8
0
 10
-3.09
 11
-2.34
 20
15.714
 21
15.535
  0
LINE
  8
0
 10
-2.34
 11
-1.572
 20
15.535
 21
15.403
  0
LINE
  8
0
 10
-1.572
 11
-0.786
 20
15.403
 21
15.328
  0
LINE
  8
0
 10
-0.786
 11
0
 20
15.328
 21
15.3
  0
LINE
  8
0
 10
0
 11
0.786
 20
15.3
 21
15.328
  0
LINE
  8
0
 10
0.786
 11
1.572
 20
15.328
 21
15.403
  0
LINE
  8
0
 10
1.572
 11
2.34
 20
15.403
 21
15.535
  0
LINE
  8
0
 10
2.34
 11
3.09
 20
15.535
 21
15.714
  0
LINE
  8
0
 10
3.09
 11
3.822
 20
15.714
 21
15.949
  0
LINE
  8
0
 10
3.822
 11
4.518
 20
15.949
 21
16.225
  0
LINE
  8
0
 10
4.518
 11
5.187
 20
16.225
 21
16.549
  0
LINE
  8
0
 10
5.187
 11
5.81
 20
16.549
 21
16.915
  0
LINE
  8
0
 10
5.81
 11
6.389
 20
16.915
 21
17.322
  0
LINE
  8
0
 10
6.389
 11
6.922
 20
17.322
 21
17.763
  0
LINE
  8
0
 10
6.922
 11
7.401
 20
17.763
 21
18.239
  0
LINE
  8
0
 10
7.401
 11
7.826
 20
18.239
 21
18.75
  0
LINE
  8
0
 10
7.826
 11
8.187
 20
18.75
 21
19.281
  0
LINE
  8
0
 10
8.187
 11
8.494
 20
19.281
 21
19.84
  0
LINE
  8
0
 10
8.494
 11
8.729
 20
19.84
 21
20.413
  0
LINE
  8
0
 10
8.729
 11
8.901
 20
20.413
 21
20.999
  0
LINE
  8
0
 10
8.901
 11
9
 20
20.999
 21
21.6
  0
LINE
  8
0
 10
9
 11
9.033
 20
21.6
 21
22.136
  0
LINE
  8
0
 10
9.033
 11
9.011
 20
22.136
 21
22.136
  0
LINE
  8
0
 10
9.011
 11
9.011
 20
22.136
 21
25.064
  0
LINE
  8
0
 10
9.011
 11
11.989
 20
25.064
 21
25.064
  0
LINE
  8
0
 10
11.989
 11
11.989
 20
25.064
 21
22.136
  0
LINE
  8
0
 10
11.989
 11
11.964
 20
22.136
 21
22.136
  0
LINE
  8
0
 10
11.964
 11
11.964
 20
22.136
 21
17.994
  0
LINE
  8
0
 10
11.964
 11
11.9
 20
17.994
 21
18
  0
LINE
  8
0
 10
11.9
 11
11.161
 20
18
 21
17.928
  0
LINE
  8
0
 10
11.161
 11
10.421
 20
17.928
 21
17.73
  0
LINE
  8
0
 10
10.421
 11
9.699
 20
17.73
 21
17.388
  0
LINE
  8
0
 10
9.699
 11
8.993
 20
17.388
 21
16.92
  0
LINE
  8
0
 10
8.993
 11
8.304
 20
16.92
 21
16.308
  0
LINE
  8
0
 10
8.304
 11
7.65
 20
16.308
 21
15.588
  0
LINE
  8
0
 10
7.65
 11
7.021
 20
15.588
 21
14.742
  0
LINE
  8
0
 10
7.021
 11
6.435
 20
14.742
 21
13.788
  0
LINE
  8
0
 10
6.435
 11
5.89
 20
13.788
 21
12.726
  0
LINE
  8
0
 10
5.89
 11
5.389
 20
12.726
 21
11.574
  0
LINE
  8
0
 10
5.389
 11
4.938
 20
11.574
 21
10.332
  0
LINE
  8
0
 10
4.938
 11
4.539
 20
10.332
 21
9
  0
LINE
  8
0
 10
4.539
 11
4.199
 20
9
 21
7.614
  0
LINE
  8
0
 10
4.199
 11
3.91
 20
7.614
 21
6.156
  0
LINE
  8
0
 10
3.91
 11
3.689
 20
6.156
 21
4.662
  0
LINE
  8
0
 10
3.689
 11
3.527
 20
4.662
 21
3.132
  0
LINE
  8
0
 10
3.527
 11
3.434
 20
3.132
 21
1.566
  0
LINE
  8
0
 10
3.434
 11
3.4
 20
1.566
 21
0
  0
LINE
  8
0
 10
3.4
 11
3.434
 20
0
 21
-1.566
  0
LINE
  8
0
 10
3.434
 11
3.527
 20
-1.566
 21
-3.132
  0
LINE
  8
0
 10
3.527
 11
3.689
 20
-3.132
 21
-4.662
  0
LINE
  8
0
 10
3.689
 11
3.91
 20
-4.662
 21
-6.156
  0
LINE
  8
0
 10
3.91
 11
4.199
 20
-6.156
 21
-7.614
  0
LINE
  8
0
 10
4.199
 11
4.539
 20
-7.614
 21
-9
  0
LINE
  8
0
 10
4.539
 11
4.938
 20
-9
 21
-10.332
  0
LINE
  8
0
 10
4.938
 11
5.389
 20
-10.332
 21
-11.574
  0
LINE
  8
0
 10
5.389
 11
5.89
 20
-11.574
 21
-12.726
  0
LINE
  8
0
 10
5.89
 11
6.435
 20
-12.726
 21
-13.788
  0
LINE
  8
0
 10
6.435
 11
7.021
 20
-13.788
 21
-14.742
  0
LINE
  8
0
 10
7.021
 11
7.65
 20
-14.742
 21
-15.588
  0
LINE
  8
0
 10
7.65
 11
8.304
 20
-15.588
 21
-16.308
  0
LINE
  8
0
 10
8.304
 11
8.993
 20
-16.308
 21
-16.92
  0
LINE
  8
0
 10
8.993
 11
9.699
 20
-16.92
 21
-17.388
  0
LINE
  8
0
 10
9.699
 11
10.421
 20
-17.388
 21
-17.73
  0
LINE
  8
0
 10
10.421
 11
11.161
 20
-17.73
 21
-17.928
  0
LINE
  8
0
 10
11.161
 11
11.9
 20
-17.928
 21
-18
  0
LINE
  8
0
 10
11.9
 11
11.964
 20
-18
 21
-17.994
  0
LINE
  8
0
 10
11.964
 11
11.964
 20
-17.994
 21
-22.136
  0
LINE
  8
0
 10
11.964
 11
11.989
 20
-22.136
 21
-22.136
  0
LINE
  8
0
 10
11.989
 11
11.989
 20
-22.136
 21
-25.064
  0
LINE
  8
0
 10
11.989
 11
9.011
 20
-25.064
 21
-25.064
  0
LINE
  8
0
 10
9.011
 11
9.011
 20
-25.064
 21
-22.136
  0
LINE
  8
0
 10
9.011
 11
9.033
 20
-22.136
 21
-22.136
  0
LINE
  8
0
 10
9.033
 11
9
 20
-22.136
 21
-21.6
  0
LINE
  8
0
 10
9
 11
8.901
 20
-21.6
 21
-20.999
  0
LINE
  8
0
 10
8.901
 11
8.729
 20
-20.999
 21
-20.413
  0
LINE
  8
0
 10
8.729
 11
8.494
 20
-20.413
 21
-19.84
  0
LINE
  8
0
 10
8.494
 11
8.187
 20
-19.84
 21
-19.281
  0
LINE
  8
0
 10
8.187
 11
7.826
 20
-19.281
 21
-18.75
  0
LINE
  8
0
 10
7.826
 11
7.401
 20
-18.75
 21
-18.239
  0
LINE
  8
0
 10
7.401
 11
6.922
 20
-18.239
 21
-17.763
  0
LINE
  8
0
 10
6.922
 11
6.389
 20
-17.763
 21
-17.322
  0
LINE
  8
0
 10
6.389
 11
5.81
 20
-17.322
 21
-16.915
  0
LINE
  8
0
 10
5.81
 11
5.187
 20
-16.915
 21
-16.549
  0
LINE
  8
0
 10
5.187
 11
4.518
 20
-16.549
 21
-16.225
  0
LINE
  8
0
 10
4.518
 11
3.822
 20
-16.225
 21
-15.949
  0
LINE
  8
0
 10
3.822
 11
3.09
 20
-15.949
 21
-15.714
  0
LINE
  8
0
 10
3.09
 11
2.34
 20
-15.714
 21
-15.535
  0
LINE
  8
0
 10
2.34
 11
1.572
 20
-15.535
 21
-15.403
  0
LINE
  8
0
 10
1.572
 11
0.786
 20
-15.403
 21
-15.328
  0
LINE
  8
0
 10
0.786
 11
0
 20
-15.328
 21
-15.3
  0
LINE
  8
0
 10
0
 11
-0.786
 20
-15.3
 21
-15.328
  0
LINE
  8
0
 10
-0.786
 11
-1.572
 20
-15.328
 21
-15.403
  0
LINE
  8
0
 10
-1.572
 11
-2.34
 20
-15.403
 21
-15.535
  0
LINE
  8
0
 10
-2.34
 11
-3.09
 20
-15.535
 21
-15.714
  0
LINE
  8
0
 10
-3.09
 11
-3.822
 20
-15.714
 21
-15.949
  0
LINE
  8
0
 10
-3.822
 11
-4.518
 20
-15.949
 21
-16.225
  0
LINE
  8
0
 10
-4.518
 11
-5.187
 20
-16.225
 21
-16.549
  0
LINE
  8
0
 10
-5.187
 11
-5.81
 20
-16.549
 21
-16.915
  0
LINE
  8
0
 10
-5.81
 11
-6.389
 20
-16.915
 21
-17.322
  0
LINE
  8
0
 10
-6.389
 11
-6.922
 20
-17.322
 21
-17.763
  0
LINE
  8
0
 10
-6.922
 11
-7.401
 20
-17.763
 21
-18.239
  0
LINE
  8
0
 10
-7.401
 11
-7.826
 20
-18.239
 21
-18.75
  0
LINE
  8
0
 10
-7.826
 11
-8.187
 20
-18.75
 21
-19.281
  0
LINE
  8
0
 10
-8.187
 11
-8.494
 20
-19.281
 21
-19.84
  0
LINE
  8
0
 10
-8.494
 11
-8.729
 20
-19.84
 21
-20.413
  0
LINE
  8
0
 10
-8.729
 11
-8.901
 20
-20.413
 21
-20.999
  0
LINE
  8
0
 10
-8.901
 11
-9
 20
-20.999
 21
-21.6
  0
LINE
  8
0
 10
-9
 11
-9.033
 20
-21.6
 21
-22.136
  0
LINE
  8
0
 10
-9.033
 11
-9.011
 20
-22.136
 21
-22.136
  0
LINE
  8
0
 10
-9.011
 11
-9.011
 20
-22.136
 21
-25.064
  0
LINE
  8
0
 10
-9.011
 11
-11.989
 20
-25.064
 21
-25.064
  0
LINE
  8
0
 10
-0.537
 11
-0.537
 20
-12.436
 21
12.436
  0
LINE
  8
0
 10
-0.537
 11
0.537
 20
12.436
 21
12.436
  0
LINE
  8
0
 10
0.537
 11
0.537
 20
12.436
 21
-12.436
  0
LINE
  8
0
 10
0.537
 11
-0.537
 20
-12.436
 21
-12.436
  0
ENDSEC
  0
SECTION
  2
OBJECTS
  0
DICTIONARY
  0
ENDSEC
  0
EOF
