  0
SECTION
  2
BLOCKS
  0
ENDSEC
  0
SECTION
  2
ENTITIES
  0
LINE
  8
0
 10
-58.463
 11
-58.463
 20
-9.252
 21
9.252
  0
LINE
  8
0
 10
-58.463
 11
-55.664
 20
9.252
 21
9.252
  0
LINE
  8
0
 10
-55.664
 11
-55.664
 20
9.252
 21
11.964
  0
LINE
  8
0
 10
-55.664
 11
-51.837
 20
11.964
 21
11.964
  0
LINE
  8
0
 10
-51.837
 11
-51.837
 20
11.964
 21
9.163
  0
LINE
  8
0
 10
-51.837
 11
-49.163
 20
9.163
 21
9.163
  0
LINE
  8
0
 10
-49.163
 11
-49.163
 20
9.163
 21
11.964
  0
LINE
  8
0
 10
-49.163
 11
-47.289
 20
11.964
 21
11.964
  0
LINE
  8
0
 10
-47.289
 11
-47.289
 20
11.964
 21
14.763
  0
LINE
  8
0
 10
-47.289
 11
-44.311
 20
14.763
 21
14.763
  0
LINE
  8
0
 10
-44.311
 11
-44.311
 20
14.763
 21
11.964
  0
LINE
  8
0
 10
-44.311
 11
44.311
 20
11.964
 21
11.964
  0
LINE
  8
0
 10
44.311
 11
44.311
 20
11.964
 21
14.763
  0
LINE
  8
0
 10
44.311
 11
47.289
 20
14.763
 21
14.763
  0
LINE
  8
0
 10
47.289
 11
47.289
 20
14.763
 21
11.964
  0
LINE
  8
0
 10
47.289
 11
49.163
 20
11.964
 21
11.964
  0
LINE
  8
0
 10
49.163
 11
49.163
 20
11.964
 21
9.163
  0
LINE
  8
0
 10
49.163
 11
51.837
 20
9.163
 21
9.163
  0
LINE
  8
0
 10
51.837
 11
51.837
 20
9.163
 21
11.964
  0
LINE
  8
0
 10
51.837
 11
55.664
 20
11.964
 21
11.964
  0
LINE
  8
0
 10
55.664
 11
55.664
 20
11.964
 21
9.252
  0
LINE
  8
0
 10
55.664
 11
58.463
 20
9.252
 21
9.252
  0
LINE
  8
0
 10
58.463
 11
58.463
 20
9.252
 21
-9.252
  0
LINE
  8
0
 10
58.463
 11
55.664
 20
-9.252
 21
-9.252
  0
LINE
  8
0
 10
55.664
 11
55.664
 20
-9.252
 21
-11.964
  0
LINE
  8
0
 10
55.664
 11
51.837
 20
-11.964
 21
-11.964
  0
LINE
  8
0
 10
51.837
 11
51.837
 20
-11.964
 21
-9.163
  0
LINE
  8
0
 10
51.837
 11
49.163
 20
-9.163
 21
-9.163
  0
LINE
  8
0
 10
49.163
 11
49.163
 20
-9.163
 21
-11.964
  0
LINE
  8
0
 10
49.163
 11
47.289
 20
-11.964
 21
-11.964
  0
LINE
  8
0
 10
47.289
 11
47.289
 20
-11.964
 21
-14.763
  0
LINE
  8
0
 10
47.289
 11
44.311
 20
-14.763
 21
-14.763
  0
LINE
  8
0
 10
44.311
 11
44.311
 20
-14.763
 21
-11.964
  0
LINE
  8
0
 10
44.311
 11
-44.311
 20
-11.964
 21
-11.964
  0
LINE
  8
0
 10
-44.311
 11
-44.311
 20
-11.964
 21
-14.763
  0
LINE
  8
0
 10
-44.311
 11
-47.289
 20
-14.763
 21
-14.763
  0
LINE
  8
0
 10
-47.289
 11
-47.289
 20
-14.763
 21
-11.964
  0
LINE
  8
0
 10
-47.289
 11
-49.163
 20
-11.964
 21
-11.964
  0
LINE
  8
0
 10
-49.163
 11
-49.163
 20
-11.964
 21
-9.163
  0
LINE
  8
0
 10
-49.163
 11
-51.837
 20
-9.163
 21
-9.163
  0
LINE
  8
0
 10
-51.837
 11
-51.837
 20
-9.163
 21
-11.964
  0
LINE
  8
0
 10
-51.837
 11
-55.664
 20
-11.964
 21
-11.964
  0
LINE
  8
0
 10
-55.664
 11
-55.664
 20
-11.964
 21
-9.252
  0
LINE
  8
0
 10
-55.664
 11
-58.463
 20
-9.252
 21
-9.252
  0
ENDSEC
  0
SECTION
  2
OBJECTS
  0
DICTIONARY
  0
ENDSEC
  0
EOF
