G75*
G70*
%OFA0B0*%
%FSLAX24Y24*%
%IPPOS*%
%LPD*%
%AMOC8*
5,1,8,0,0,1.08239X$1,22.5*
%
%ADD10C,0.0000*%
%ADD11R,0.0472X0.0472*%
%ADD12C,0.0060*%
%ADD13C,0.0240*%
D10*
X000150Y000175D02*
X000150Y010175D01*
X040150Y010175D01*
X040150Y000175D01*
X000150Y000175D01*
D11*
X001150Y001595D03*
X002733Y001595D03*
X004317Y001595D03*
X005900Y001595D03*
X007483Y001595D03*
X009067Y001595D03*
X010650Y001595D03*
X012233Y001595D03*
X013817Y001595D03*
X015400Y001595D03*
X016983Y001595D03*
X018567Y001595D03*
X020150Y001595D03*
X021733Y001595D03*
X023317Y001595D03*
X024900Y001595D03*
X026483Y001595D03*
X028067Y001595D03*
X029650Y001595D03*
X031233Y001595D03*
X032817Y001595D03*
X034400Y001595D03*
X035983Y001595D03*
X037567Y001595D03*
X039150Y001595D03*
X039150Y002422D03*
X037567Y002422D03*
X035983Y002422D03*
X034400Y002422D03*
X032817Y002422D03*
X031233Y002422D03*
X029650Y002422D03*
X028067Y002422D03*
X026483Y002422D03*
X024900Y002422D03*
X023317Y002422D03*
X021733Y002422D03*
X020150Y002422D03*
X018567Y002422D03*
X016983Y002422D03*
X015400Y002422D03*
X013817Y002422D03*
X012233Y002422D03*
X010650Y002422D03*
X009067Y002422D03*
X007483Y002422D03*
X005900Y002422D03*
X004317Y002422D03*
X002733Y002422D03*
X001150Y002422D03*
X001150Y003178D03*
X002733Y003178D03*
X004317Y003178D03*
X005900Y003178D03*
X007483Y003178D03*
X009067Y003178D03*
X010650Y003178D03*
X012233Y003178D03*
X013817Y003178D03*
X015400Y003178D03*
X016983Y003178D03*
X018567Y003178D03*
X020150Y003178D03*
X021733Y003178D03*
X023317Y003178D03*
X024900Y003178D03*
X026483Y003178D03*
X028067Y003178D03*
X029650Y003178D03*
X031233Y003178D03*
X032817Y003178D03*
X034400Y003178D03*
X035983Y003178D03*
X037567Y003178D03*
X039150Y003178D03*
X039150Y004005D03*
X037567Y004005D03*
X035983Y004005D03*
X034400Y004005D03*
X032817Y004005D03*
X031233Y004005D03*
X029650Y004005D03*
X028067Y004005D03*
X026483Y004005D03*
X024900Y004005D03*
X023317Y004005D03*
X021733Y004005D03*
X020150Y004005D03*
X018567Y004005D03*
X016983Y004005D03*
X015400Y004005D03*
X013817Y004005D03*
X012233Y004005D03*
X010650Y004005D03*
X009067Y004005D03*
X007483Y004005D03*
X005900Y004005D03*
X004317Y004005D03*
X002733Y004005D03*
X001150Y004005D03*
X001150Y004762D03*
X002733Y004762D03*
X004317Y004762D03*
X005900Y004762D03*
X007483Y004762D03*
X009067Y004762D03*
X010650Y004762D03*
X012233Y004762D03*
X013817Y004762D03*
X015400Y004762D03*
X016983Y004762D03*
X018567Y004762D03*
X020150Y004762D03*
X021733Y004762D03*
X023317Y004762D03*
X024900Y004762D03*
X026483Y004762D03*
X028067Y004762D03*
X029650Y004762D03*
X031233Y004762D03*
X032817Y004762D03*
X034400Y004762D03*
X035983Y004762D03*
X037567Y004762D03*
X039150Y004762D03*
X039150Y005588D03*
X037567Y005588D03*
X035983Y005588D03*
X034400Y005588D03*
X032817Y005588D03*
X031233Y005588D03*
X029650Y005588D03*
X028067Y005588D03*
X026483Y005588D03*
X024900Y005588D03*
X023317Y005588D03*
X021733Y005588D03*
X020150Y005588D03*
X018567Y005588D03*
X016983Y005588D03*
X015400Y005588D03*
X013817Y005588D03*
X012233Y005588D03*
X010650Y005588D03*
X009067Y005588D03*
X007483Y005588D03*
X005900Y005588D03*
X004317Y005588D03*
X002733Y005588D03*
X001150Y005588D03*
X001150Y006345D03*
X002733Y006345D03*
X004317Y006345D03*
X005900Y006345D03*
X007483Y006345D03*
X009067Y006345D03*
X010650Y006345D03*
X012233Y006345D03*
X013817Y006345D03*
X015400Y006345D03*
X016983Y006345D03*
X018567Y006345D03*
X020150Y006345D03*
X021733Y006345D03*
X023317Y006345D03*
X024900Y006345D03*
X026483Y006345D03*
X028067Y006345D03*
X029650Y006345D03*
X031233Y006345D03*
X032817Y006345D03*
X034400Y006345D03*
X035983Y006345D03*
X037567Y006345D03*
X039150Y006345D03*
X039150Y007172D03*
X037567Y007172D03*
X035983Y007172D03*
X034400Y007172D03*
X032817Y007172D03*
X031233Y007172D03*
X029650Y007172D03*
X028067Y007172D03*
X026483Y007172D03*
X024900Y007172D03*
X023317Y007172D03*
X021733Y007172D03*
X020150Y007172D03*
X018567Y007172D03*
X016983Y007172D03*
X015400Y007172D03*
X013817Y007172D03*
X012233Y007172D03*
X010650Y007172D03*
X009067Y007172D03*
X007483Y007172D03*
X005900Y007172D03*
X004317Y007172D03*
X002733Y007172D03*
X001150Y007172D03*
X001150Y007928D03*
X002733Y007928D03*
X004317Y007928D03*
X005900Y007928D03*
X007483Y007928D03*
X009067Y007928D03*
X010650Y007928D03*
X012233Y007928D03*
X013817Y007928D03*
X015400Y007928D03*
X016983Y007928D03*
X018567Y007928D03*
X020150Y007928D03*
X021733Y007928D03*
X023317Y007928D03*
X024900Y007928D03*
X026483Y007928D03*
X028067Y007928D03*
X029650Y007928D03*
X031233Y007928D03*
X032817Y007928D03*
X034400Y007928D03*
X035983Y007928D03*
X037567Y007928D03*
X039150Y007928D03*
X039150Y008755D03*
X037567Y008755D03*
X035983Y008755D03*
X034400Y008755D03*
X032817Y008755D03*
X031233Y008755D03*
X029650Y008755D03*
X028067Y008755D03*
X026483Y008755D03*
X024900Y008755D03*
X023317Y008755D03*
X021733Y008755D03*
X020150Y008755D03*
X018567Y008755D03*
X016983Y008755D03*
X015400Y008755D03*
X013817Y008755D03*
X012233Y008755D03*
X010650Y008755D03*
X009067Y008755D03*
X007483Y008755D03*
X005900Y008755D03*
X004317Y008755D03*
X002733Y008755D03*
X001150Y008755D03*
D12*
X001150Y008755D01*
X001480Y008425D01*
X001480Y007165D01*
X001910Y007165D01*
X001940Y007135D01*
X001960Y007155D01*
X001970Y007155D01*
X002720Y007905D01*
X002733Y007928D01*
X002740Y007925D01*
X003560Y007925D01*
X004310Y007175D01*
X004317Y007172D01*
X003150Y006905D02*
X002890Y007165D01*
X002740Y007165D01*
X002733Y007172D01*
X001940Y007135D02*
X002730Y006345D01*
X002733Y006345D01*
X002760Y006335D01*
X003080Y006015D01*
X005550Y006015D01*
X005860Y006325D01*
X005880Y006325D01*
X005900Y006345D01*
X005900Y006345D01*
X006060Y006505D01*
X006620Y006505D01*
X007280Y007165D01*
X007480Y007165D01*
X007483Y007172D01*
X007500Y007145D01*
X007970Y006675D01*
X008800Y007505D01*
X010310Y007505D01*
X010630Y007185D01*
X010650Y007172D01*
X010650Y007165D01*
X011130Y006685D01*
X011950Y007505D01*
X013210Y007505D01*
X013530Y007185D01*
X013790Y007185D01*
X013817Y007172D01*
X013820Y007175D01*
X014540Y007175D01*
X014730Y007365D01*
X014980Y007185D02*
X015390Y007185D01*
X015400Y007175D01*
X015400Y007172D01*
X016300Y006705D02*
X014400Y006705D01*
X014310Y006615D01*
X014980Y006495D02*
X015250Y006495D01*
X015400Y006345D01*
X015400Y006345D01*
X016230Y006345D02*
X016980Y006345D01*
X016983Y006345D01*
X017610Y006395D02*
X017660Y006345D01*
X018560Y006345D01*
X018567Y006345D01*
X019340Y006825D02*
X019730Y006435D01*
X020150Y006345D02*
X020150Y006345D01*
X019460Y007035D01*
X019720Y007295D01*
X019730Y007295D01*
X019460Y007035D02*
X019330Y007165D01*
X018990Y007165D01*
X018990Y007895D01*
X018590Y007945D02*
X018567Y007928D01*
X018550Y007905D01*
X018220Y007575D01*
X018220Y007035D01*
X018030Y007035D01*
X017400Y007035D02*
X017120Y007035D01*
X016990Y007165D01*
X016983Y007172D01*
X017790Y007575D02*
X018010Y007355D01*
X017790Y007575D02*
X013440Y007575D01*
X013810Y007935D02*
X013817Y007928D01*
X013810Y007935D02*
X013680Y008065D01*
X013230Y008065D01*
X012233Y007928D02*
X012230Y007925D01*
X012160Y007855D01*
X011390Y007855D01*
X011810Y008065D02*
X010780Y008065D01*
X010650Y007935D01*
X010650Y007928D01*
X010630Y007955D01*
X010340Y007955D01*
X010230Y008065D01*
X009420Y008275D02*
X015690Y008275D01*
X015820Y008145D01*
X016030Y008285D02*
X016030Y007935D01*
X015400Y007935D01*
X015400Y007928D01*
X015910Y008405D02*
X016030Y008285D01*
X015910Y008405D02*
X014520Y008405D01*
X014520Y008485D01*
X014520Y008405D02*
X014170Y008405D01*
X013820Y008755D01*
X013817Y008755D01*
X013790Y008745D01*
X013440Y008395D01*
X008680Y008395D01*
X008540Y008255D01*
X007060Y008255D01*
X007370Y008045D02*
X006610Y008045D01*
X005900Y008755D01*
X005900Y008755D01*
X005880Y008735D01*
X005420Y008275D01*
X004670Y008275D01*
X004340Y007945D01*
X004317Y007928D01*
X004310Y007935D01*
X003500Y008745D01*
X002760Y008745D01*
X002733Y008755D01*
X002730Y008765D01*
X002410Y009085D01*
X000820Y009085D01*
X000820Y008265D01*
X001150Y007935D01*
X001150Y007928D01*
X001150Y007172D02*
X001150Y007165D01*
X001480Y007165D01*
X003380Y006315D02*
X003740Y006675D01*
X005410Y006675D01*
X005880Y007145D01*
X005900Y007172D01*
X005900Y007165D01*
X006080Y007165D01*
X006530Y006715D01*
X006830Y006415D02*
X007410Y006415D01*
X007480Y006345D01*
X007483Y006345D01*
X007970Y006675D02*
X008270Y006375D01*
X009030Y006375D01*
X009060Y006345D01*
X009067Y006345D01*
X008520Y006585D02*
X009070Y007135D01*
X009067Y007172D01*
X009070Y007165D01*
X009830Y007165D01*
X010650Y006345D01*
X010650Y006345D01*
X011270Y006345D02*
X012230Y006345D01*
X012233Y006345D01*
X011610Y006555D02*
X011480Y006555D01*
X011610Y006555D02*
X012210Y007155D01*
X012233Y007172D01*
X012240Y007165D01*
X013060Y006345D01*
X013810Y006345D01*
X013817Y006345D01*
X013560Y006825D02*
X019340Y006825D01*
X018990Y007165D02*
X018570Y007165D01*
X018567Y007172D01*
X019400Y007885D02*
X019780Y007505D01*
X021390Y007505D01*
X021710Y007185D01*
X021733Y007172D01*
X021740Y007165D01*
X022180Y006725D01*
X022600Y006725D01*
X022600Y006765D01*
X022600Y006725D02*
X022930Y006725D01*
X023310Y006345D01*
X023317Y006345D01*
X023850Y006125D02*
X023850Y006605D01*
X023970Y006725D01*
X026820Y006725D01*
X026900Y006645D01*
X027200Y006345D01*
X028060Y006345D01*
X028067Y006345D01*
X028090Y006355D01*
X028840Y006355D01*
X029650Y007165D01*
X029650Y007172D01*
X029670Y007145D01*
X030420Y007145D01*
X031210Y006355D01*
X031233Y006345D01*
X031240Y006345D01*
X032060Y007165D01*
X032810Y007165D01*
X032817Y007172D01*
X032840Y007155D01*
X033590Y007155D01*
X034400Y006345D01*
X034400Y006345D01*
X034420Y006325D01*
X034440Y006325D01*
X034750Y006015D01*
X036310Y006015D01*
X036310Y007145D01*
X036400Y007185D01*
X036400Y007165D01*
X036740Y007165D01*
X037560Y006345D01*
X037567Y006345D01*
X038440Y007055D02*
X039150Y006345D01*
X039150Y006345D01*
X039150Y005588D02*
X039150Y005585D01*
X039480Y005585D01*
X039480Y008205D01*
X039340Y008345D01*
X034730Y008345D01*
X034730Y009025D01*
X034670Y009085D01*
X033140Y009085D01*
X032820Y008765D01*
X032817Y008755D01*
X032400Y008605D02*
X031710Y009295D01*
X028090Y009295D01*
X027880Y009505D01*
X025590Y009505D01*
X025500Y009595D01*
X025360Y009385D02*
X027830Y009385D01*
X028130Y009085D01*
X028730Y009085D01*
X029060Y008755D01*
X029650Y008755D01*
X029650Y008755D01*
X029670Y008735D01*
X030150Y008735D01*
X030280Y008605D01*
X031233Y008755D02*
X031240Y008755D01*
X031390Y008605D01*
X031650Y008605D01*
X031100Y008065D02*
X030810Y008065D01*
X031100Y008065D02*
X031230Y007935D01*
X031233Y007928D01*
X030960Y007595D02*
X030750Y007805D01*
X029770Y007805D01*
X029650Y007925D01*
X029650Y007928D01*
X029630Y007925D01*
X028700Y007925D01*
X028490Y008135D01*
X028790Y008135D02*
X028930Y008275D01*
X034060Y008275D01*
X034380Y007955D01*
X034400Y007928D01*
X034400Y007935D01*
X034730Y007935D01*
X034730Y008345D01*
X035130Y008135D02*
X035740Y007525D01*
X037210Y007525D01*
X037560Y007175D01*
X037567Y007172D01*
X037590Y007155D01*
X037690Y007055D01*
X038440Y007055D01*
X038600Y007725D02*
X039150Y007175D01*
X039150Y007172D01*
X038600Y007725D02*
X037770Y007725D01*
X037570Y007925D01*
X037567Y007928D01*
X037540Y007935D01*
X037430Y008045D01*
X036420Y008045D01*
X036080Y007835D02*
X035990Y007925D01*
X035983Y007928D01*
X036080Y007835D02*
X036640Y007835D01*
X037990Y007935D02*
X039150Y007935D01*
X039150Y007928D01*
X038950Y008555D02*
X038730Y008555D01*
X038950Y008555D02*
X039150Y008755D01*
X039150Y008755D01*
X037567Y008755D02*
X037560Y008755D01*
X037350Y008755D01*
X037150Y008555D01*
X036290Y009415D01*
X029010Y009415D01*
X028920Y009505D01*
X029160Y009625D02*
X035250Y009625D01*
X035983Y008755D02*
X035990Y008755D01*
X036190Y008555D01*
X036400Y008555D01*
X034400Y008755D02*
X034400Y008755D01*
X033710Y008755D01*
X033560Y008605D01*
X033830Y008395D02*
X033980Y008545D01*
X033830Y008395D02*
X027750Y008395D01*
X027610Y008255D01*
X025930Y008255D01*
X025910Y008235D01*
X026010Y008135D01*
X025910Y008235D02*
X025740Y008405D01*
X024360Y008405D01*
X023680Y009085D01*
X023040Y009085D01*
X022970Y009015D01*
X022970Y008425D01*
X021270Y008425D01*
X021240Y008395D01*
X019040Y008395D01*
X018590Y007945D01*
X018567Y007928D02*
X018560Y007935D01*
X018360Y008135D01*
X017610Y008135D01*
X016990Y008755D01*
X016983Y008755D01*
X016390Y008525D02*
X016980Y007935D01*
X016983Y007928D01*
X017010Y007935D01*
X017290Y007935D01*
X017400Y008045D01*
X017700Y008345D02*
X018140Y008345D01*
X018540Y008745D01*
X018567Y008755D01*
X018570Y008755D01*
X018840Y008755D01*
X018990Y008605D01*
X020150Y008755D02*
X020150Y008755D01*
X021000Y008755D01*
X021150Y008605D01*
X021733Y008755D02*
X021740Y008755D01*
X021860Y008635D01*
X022640Y008635D01*
X023317Y008755D02*
X023320Y008755D01*
X023540Y008535D01*
X023730Y008725D01*
X023740Y008725D01*
X023540Y008535D02*
X023790Y008285D01*
X024550Y008285D01*
X024900Y007935D01*
X024900Y007928D01*
X024160Y008075D02*
X023460Y008075D01*
X023320Y007935D01*
X023317Y007928D01*
X023290Y007935D01*
X023000Y007935D01*
X022720Y008215D01*
X022410Y008215D02*
X022370Y008255D01*
X020860Y008255D01*
X020730Y008125D01*
X020170Y007915D02*
X020150Y007928D01*
X020150Y007935D01*
X019900Y008185D01*
X019400Y008185D01*
X020170Y007915D02*
X021310Y007915D01*
X021733Y007928D02*
X021740Y007935D01*
X021850Y008045D01*
X022150Y008045D01*
X022470Y007595D02*
X030290Y007595D01*
X030960Y007595D02*
X031770Y007595D01*
X032100Y007925D01*
X031980Y008045D01*
X032100Y007925D02*
X032810Y007925D01*
X032817Y007928D01*
X032840Y007945D01*
X033120Y007945D01*
X033240Y008065D01*
X032400Y007505D02*
X032190Y007715D01*
X032400Y007505D02*
X034070Y007505D01*
X034400Y007175D01*
X034400Y007172D01*
X034420Y007155D01*
X035170Y007155D01*
X035980Y006345D01*
X035983Y006345D01*
X035670Y005895D02*
X034700Y005895D01*
X034580Y006015D01*
X032300Y006015D01*
X032190Y006125D01*
X031710Y006125D01*
X032230Y005915D02*
X031060Y005915D01*
X030720Y006255D01*
X030190Y005795D02*
X029670Y006315D01*
X029650Y006345D01*
X029650Y006335D01*
X028900Y005585D01*
X028070Y005585D01*
X028067Y005588D01*
X028040Y005595D01*
X027740Y005595D01*
X027530Y005805D01*
X026800Y006015D02*
X026500Y006315D01*
X026483Y006345D01*
X026480Y006335D01*
X025810Y006335D01*
X025510Y006345D02*
X024900Y006345D01*
X024900Y006345D01*
X024480Y006515D02*
X024060Y006515D01*
X022820Y006845D02*
X022570Y007095D01*
X022150Y007095D01*
X022820Y006845D02*
X025710Y006845D01*
X025800Y006935D01*
X025890Y007145D02*
X026190Y006845D01*
X026760Y006845D01*
X026770Y006855D01*
X027080Y006855D01*
X027610Y007385D01*
X027310Y007385D02*
X027110Y007185D01*
X026510Y007185D01*
X026483Y007172D01*
X026480Y007175D01*
X026160Y007175D01*
X026060Y007275D01*
X025890Y007145D02*
X025320Y007145D01*
X024900Y007172D02*
X024900Y007175D01*
X024690Y007385D01*
X024480Y007385D01*
X024410Y007155D02*
X023340Y007155D01*
X023317Y007172D01*
X023310Y007165D01*
X023210Y007065D01*
X022900Y007065D01*
X024410Y007155D02*
X024480Y007085D01*
X022470Y007595D02*
X022420Y007545D01*
X020830Y006485D02*
X020150Y007165D01*
X020150Y007172D01*
X018030Y006605D02*
X017410Y006605D01*
X017400Y006615D01*
X016450Y006555D02*
X016300Y006705D01*
X013560Y006825D02*
X013400Y006985D01*
X011270Y006545D02*
X011270Y006345D01*
X011270Y006545D02*
X011130Y006685D01*
X008810Y005935D02*
X019400Y005935D01*
X019400Y005915D01*
X019400Y005935D02*
X022030Y005935D01*
X022300Y005665D01*
X022900Y005775D02*
X023040Y005915D01*
X025370Y005915D01*
X025860Y005425D01*
X025320Y005425D02*
X025060Y005425D01*
X024900Y005585D01*
X024900Y005588D01*
X024480Y005425D02*
X023480Y005425D01*
X023320Y005585D01*
X023317Y005588D01*
X022510Y005445D02*
X021880Y005445D01*
X021740Y005585D01*
X021733Y005588D01*
X021710Y005585D01*
X020960Y005585D01*
X020570Y005445D02*
X020290Y005445D01*
X020150Y005585D01*
X020150Y005588D01*
X021250Y005235D02*
X019010Y005235D01*
X018980Y005265D01*
X018960Y005245D01*
X018280Y005245D01*
X018160Y005125D01*
X009440Y005125D01*
X009390Y005175D01*
X009600Y005395D02*
X009740Y005255D01*
X011900Y005255D01*
X012230Y005585D01*
X012233Y005588D01*
X012260Y005575D01*
X012410Y005575D01*
X012650Y005335D01*
X012730Y005255D01*
X015070Y005255D01*
X015400Y005585D01*
X015400Y005588D01*
X015420Y005585D01*
X016120Y005585D01*
X015910Y005365D02*
X016020Y005255D01*
X018120Y005255D01*
X018440Y005575D01*
X018540Y005575D01*
X018567Y005588D01*
X018570Y005585D01*
X018590Y005565D01*
X018990Y005565D01*
X018030Y005465D02*
X017110Y005465D01*
X016990Y005585D01*
X016983Y005588D01*
X018210Y005005D02*
X018300Y005095D01*
X018850Y005095D01*
X019060Y004885D01*
X019190Y005015D01*
X019060Y004885D02*
X019180Y004765D01*
X020150Y004765D01*
X020150Y004762D01*
X020170Y004775D01*
X020570Y004775D01*
X020750Y005025D02*
X021010Y004765D01*
X021730Y004765D01*
X021733Y004762D01*
X021760Y004775D01*
X022010Y005025D01*
X022740Y005025D01*
X022850Y005215D02*
X022830Y005235D01*
X021290Y005235D01*
X021310Y005295D01*
X021250Y005235D01*
X022850Y005215D02*
X024060Y005215D01*
X024060Y005195D01*
X024060Y005215D02*
X027460Y005215D01*
X027500Y005255D01*
X027520Y005235D01*
X034840Y005235D01*
X034880Y005275D01*
X034670Y005095D02*
X033160Y005095D01*
X032840Y004775D01*
X032817Y004762D01*
X032810Y004765D01*
X032480Y005095D01*
X031650Y005095D01*
X031650Y005025D01*
X031650Y005095D02*
X029980Y005095D01*
X029650Y004765D01*
X029650Y004762D01*
X029240Y004435D02*
X028580Y005095D01*
X027240Y005095D01*
X027150Y005005D01*
X027350Y004775D02*
X027430Y004855D01*
X027350Y004775D02*
X026510Y004775D01*
X026483Y004762D01*
X026480Y004765D01*
X026150Y005095D01*
X025320Y005095D01*
X025320Y005005D01*
X025320Y005095D02*
X024630Y005095D01*
X024520Y004985D01*
X023540Y004985D01*
X023320Y004765D01*
X023317Y004762D01*
X023290Y004775D01*
X022560Y004775D01*
X022530Y004805D01*
X022270Y004635D02*
X022570Y004335D01*
X026770Y004335D01*
X027450Y003655D01*
X034540Y003655D01*
X034900Y003295D01*
X034730Y002845D02*
X034420Y003155D01*
X034400Y003178D01*
X034400Y003175D01*
X034070Y002845D01*
X032400Y002845D01*
X032400Y002865D01*
X032400Y002845D02*
X031580Y002845D01*
X031260Y003165D01*
X031233Y003178D01*
X031230Y003185D01*
X030910Y003505D01*
X029230Y003505D01*
X029230Y003445D01*
X029230Y003505D02*
X028400Y003505D01*
X028090Y003195D01*
X028067Y003178D01*
X028060Y003185D01*
X027710Y003535D01*
X026970Y003535D01*
X026510Y003995D01*
X026483Y004005D01*
X026480Y004005D01*
X026290Y004005D01*
X026060Y003775D01*
X025940Y003595D02*
X025310Y003595D01*
X024900Y004005D01*
X024900Y004005D01*
X025070Y003875D01*
X025320Y004125D01*
X024560Y003575D02*
X024140Y003995D01*
X023340Y003995D01*
X023317Y004005D01*
X023310Y004005D01*
X022340Y004005D01*
X022320Y003985D01*
X022320Y004025D01*
X022000Y004345D01*
X020480Y004345D01*
X020170Y004035D01*
X020150Y004005D01*
X020150Y004015D01*
X019520Y004645D01*
X018490Y004645D01*
X018567Y004762D01*
X018560Y004755D01*
X017830Y004025D01*
X017830Y004005D01*
X016990Y004005D01*
X016983Y004005D01*
X016960Y003995D01*
X016640Y003995D01*
X016560Y003915D01*
X016330Y003715D02*
X016260Y003645D01*
X015160Y003645D01*
X015090Y003715D01*
X014900Y003715D01*
X014690Y003505D01*
X014150Y003505D01*
X013840Y003195D01*
X013817Y003178D01*
X013810Y003185D01*
X013060Y003185D01*
X012240Y004005D01*
X012233Y004005D01*
X012210Y003995D01*
X011870Y003655D01*
X006850Y003655D01*
X007000Y003505D02*
X006250Y002755D01*
X004660Y002755D01*
X004340Y002435D01*
X004317Y002422D01*
X004310Y002415D01*
X003990Y002415D01*
X003970Y002435D01*
X003700Y002435D01*
X003380Y002755D01*
X002400Y002755D01*
X002400Y004415D01*
X002720Y004735D01*
X002733Y004762D01*
X002730Y004765D01*
X001910Y005585D01*
X001150Y005585D01*
X001150Y005588D01*
X000820Y005915D02*
X002410Y005915D01*
X002730Y005595D01*
X002733Y005588D01*
X002760Y005575D01*
X003500Y005575D01*
X004310Y004765D01*
X004317Y004762D01*
X004340Y004775D01*
X004920Y005355D01*
X004900Y005375D01*
X004920Y005355D02*
X005030Y005465D01*
X005380Y005115D01*
X007120Y005115D01*
X007460Y004775D01*
X007483Y004762D01*
X007490Y004765D01*
X007860Y005135D01*
X008610Y005135D01*
X009060Y005585D01*
X009067Y005588D01*
X009090Y005575D01*
X009420Y005575D01*
X009600Y005395D01*
X010230Y005725D02*
X010360Y005595D01*
X010650Y005595D01*
X010650Y005588D01*
X008810Y005935D02*
X008130Y005255D01*
X005550Y005255D01*
X005480Y005325D01*
X005850Y005535D02*
X005100Y005535D01*
X005030Y005465D01*
X004620Y005895D02*
X004320Y005595D01*
X004317Y005588D01*
X004620Y005895D02*
X005600Y005895D01*
X005630Y005925D01*
X006300Y005925D01*
X007130Y005965D02*
X007480Y005615D01*
X007480Y005595D01*
X007483Y005588D01*
X005900Y005585D02*
X005900Y005588D01*
X005900Y005585D02*
X005850Y005535D01*
X006320Y004905D02*
X006180Y004765D01*
X005900Y004765D01*
X005900Y004762D01*
X005630Y004335D02*
X005190Y003895D01*
X005900Y003185D01*
X005900Y003178D01*
X006480Y003425D02*
X005900Y004005D01*
X005900Y004005D01*
X005190Y003895D02*
X005090Y003995D01*
X004340Y003995D01*
X004317Y004005D01*
X004290Y004025D01*
X003830Y004485D01*
X004310Y004005D02*
X004317Y004005D01*
X004310Y004005D02*
X003480Y003175D01*
X002740Y003175D01*
X002733Y003178D01*
X003360Y003385D02*
X002740Y004005D01*
X002733Y004005D01*
X001150Y004015D02*
X001150Y004005D01*
X001150Y004015D02*
X000700Y004465D01*
X000700Y006335D01*
X000700Y009135D01*
X000770Y009205D01*
X006050Y009205D01*
X006370Y008885D01*
X007340Y008885D01*
X007460Y008765D01*
X007483Y008755D01*
X007490Y008755D01*
X007780Y008465D01*
X008430Y008465D01*
X009070Y008755D02*
X009220Y008605D01*
X009690Y008605D01*
X009070Y008755D02*
X009067Y008755D01*
X009420Y008275D02*
X009090Y007945D01*
X009067Y007928D01*
X009060Y007935D01*
X008780Y007935D01*
X008650Y008065D01*
X008430Y007855D02*
X007570Y007855D01*
X007510Y007915D01*
X007483Y007928D01*
X007480Y007935D01*
X007370Y008045D01*
X007860Y007555D02*
X005540Y007555D01*
X005900Y007928D02*
X005900Y007935D01*
X005770Y008065D01*
X004770Y008065D01*
X004740Y008485D02*
X004470Y008755D01*
X004320Y008755D01*
X004317Y008755D01*
X007060Y009095D02*
X007070Y009105D01*
X013030Y009105D01*
X013170Y008965D01*
X013380Y008925D02*
X013540Y009085D01*
X015070Y009085D01*
X015380Y008775D01*
X015400Y008755D01*
X015400Y008755D01*
X015630Y008525D01*
X016390Y008525D01*
X015990Y009085D02*
X015820Y008915D01*
X015990Y009085D02*
X020420Y009085D01*
X020570Y009235D01*
X021090Y009235D01*
X021150Y009175D01*
X021160Y009205D01*
X022510Y009205D01*
X022640Y009335D01*
X022760Y008975D02*
X023100Y009315D01*
X025290Y009315D01*
X025320Y009345D01*
X025360Y009385D01*
X024480Y009105D02*
X026520Y009105D01*
X026590Y009175D01*
X026490Y008755D02*
X026483Y008755D01*
X026490Y008755D02*
X026770Y008475D01*
X027510Y008475D01*
X027520Y008465D01*
X028070Y008755D02*
X028220Y008605D01*
X028490Y008605D01*
X028070Y008755D02*
X028067Y008755D01*
X028040Y008745D01*
X027980Y008685D01*
X027310Y008685D01*
X025860Y007925D02*
X025590Y008195D01*
X025860Y007925D02*
X026480Y007925D01*
X026483Y007928D01*
X026510Y007935D01*
X027200Y007935D01*
X027310Y008045D01*
X027650Y008045D02*
X027950Y008045D01*
X028060Y007935D01*
X028067Y007928D01*
X030100Y007355D02*
X030380Y007355D01*
X030890Y006845D01*
X031560Y006845D01*
X031560Y006965D01*
X031950Y007355D01*
X031233Y007172D02*
X031230Y007175D01*
X031020Y007175D01*
X030810Y007385D01*
X031980Y006785D02*
X032370Y006785D01*
X032810Y006345D01*
X032817Y006345D01*
X032230Y005915D02*
X032400Y005745D01*
X032670Y005445D02*
X032810Y005585D01*
X032817Y005588D01*
X032670Y005445D02*
X032400Y005445D01*
X031650Y005445D02*
X031520Y005575D01*
X031260Y005575D01*
X031233Y005588D01*
X031230Y005595D01*
X031030Y005795D01*
X030190Y005795D01*
X029790Y005445D02*
X029650Y005585D01*
X029650Y005588D01*
X029790Y005445D02*
X030250Y005445D01*
X028790Y005795D02*
X028570Y006015D01*
X026800Y006015D01*
X026490Y005585D02*
X026483Y005588D01*
X026490Y005585D02*
X026650Y005425D01*
X026900Y005425D01*
X027500Y005255D02*
X027640Y005395D01*
X028067Y004762D02*
X028070Y004755D01*
X028380Y004755D01*
X028580Y004555D01*
X029240Y004435D02*
X030360Y004435D01*
X030810Y004885D01*
X030940Y004755D01*
X031200Y004755D01*
X031233Y004762D01*
X031230Y004755D01*
X031230Y004015D01*
X031233Y004005D01*
X032400Y004085D02*
X032740Y004085D01*
X032810Y004015D01*
X032817Y004005D01*
X032460Y004385D02*
X034400Y004385D01*
X034400Y004005D01*
X034420Y003985D01*
X035180Y003985D01*
X035980Y003185D01*
X035983Y003178D01*
X036250Y002845D02*
X036700Y003295D01*
X035990Y004005D01*
X035983Y004005D01*
X037567Y004005D02*
X037590Y003985D01*
X037780Y003795D01*
X038540Y003795D01*
X038670Y003665D01*
X037850Y002845D01*
X037390Y002845D01*
X036850Y002305D01*
X037560Y001595D01*
X037567Y001595D01*
X037900Y001265D02*
X036330Y001265D01*
X036010Y001585D01*
X035983Y001595D01*
X035980Y001595D01*
X035180Y002395D01*
X034420Y002395D01*
X034400Y002422D01*
X034400Y002415D01*
X033830Y001845D01*
X033070Y001845D01*
X032820Y001595D01*
X032817Y001595D01*
X032910Y001725D01*
X032190Y002445D01*
X032817Y002422D02*
X032820Y002415D01*
X033180Y002055D01*
X033750Y001595D02*
X034080Y001925D01*
X035340Y001925D01*
X035390Y001875D01*
X034400Y001595D02*
X034400Y001585D01*
X034290Y001475D01*
X033490Y001475D01*
X033400Y001385D01*
X033160Y001145D01*
X025350Y001145D01*
X024920Y001575D01*
X024900Y001595D01*
X024900Y001595D01*
X024600Y001595D01*
X024480Y001715D01*
X023700Y000935D01*
X018800Y000935D01*
X019020Y001145D02*
X015860Y001145D01*
X015770Y001055D01*
X015590Y000935D02*
X015680Y000845D01*
X016400Y000845D01*
X016490Y000935D01*
X015590Y000935D02*
X005760Y000935D01*
X005580Y001265D02*
X004040Y001265D01*
X003990Y001315D01*
X003990Y002415D01*
X003150Y002505D02*
X003060Y002415D01*
X002740Y002415D01*
X002733Y002422D01*
X003060Y002415D02*
X003060Y001315D01*
X003010Y001265D01*
X001470Y001265D01*
X001150Y001585D01*
X001150Y001595D01*
X001920Y002405D02*
X002730Y001595D01*
X002733Y001595D01*
X004317Y001595D02*
X004320Y001595D01*
X005140Y002415D01*
X005900Y002415D01*
X005900Y002422D01*
X005920Y002395D01*
X006590Y002395D01*
X006590Y002415D01*
X006760Y002585D01*
X006570Y002775D01*
X006760Y002585D02*
X006970Y002795D01*
X007100Y002795D01*
X007480Y003175D01*
X007483Y003178D01*
X007340Y002995D01*
X008480Y002995D01*
X009040Y002435D01*
X009067Y002422D01*
X009070Y002415D01*
X009890Y001595D01*
X010650Y001595D01*
X010650Y001595D01*
X010670Y001615D01*
X010690Y001635D01*
X011440Y001635D01*
X011650Y001845D02*
X011220Y001845D01*
X010650Y002415D01*
X010650Y002422D01*
X010630Y002435D01*
X010620Y002435D01*
X010300Y002755D01*
X008890Y002755D01*
X008440Y003205D01*
X009067Y003178D02*
X009070Y003175D01*
X009370Y002875D01*
X010350Y002875D01*
X010380Y002845D01*
X011880Y002845D01*
X012210Y003175D01*
X012230Y003175D01*
X012233Y003178D01*
X012130Y003135D01*
X011820Y003445D01*
X011810Y003445D01*
X010650Y003185D02*
X010650Y003178D01*
X010650Y003185D02*
X010330Y003505D01*
X009490Y003505D01*
X009490Y003445D01*
X009490Y003505D02*
X007000Y003505D01*
X007483Y004005D02*
X007500Y004035D01*
X007800Y004335D01*
X010330Y004335D01*
X010650Y004015D01*
X010650Y004005D01*
X010670Y004035D01*
X010970Y004335D01*
X012510Y004335D01*
X012620Y004225D01*
X013580Y004225D01*
X013790Y004015D01*
X013817Y004005D01*
X013820Y004005D01*
X013950Y004005D01*
X014240Y003715D01*
X014990Y003505D02*
X018160Y003505D01*
X018240Y003585D01*
X018030Y003805D02*
X017830Y004005D01*
X018567Y004005D02*
X018570Y004005D01*
X019390Y003185D01*
X019260Y003055D01*
X019390Y003185D02*
X020150Y003185D01*
X020150Y003178D01*
X020170Y003205D01*
X021100Y004135D01*
X021733Y004005D02*
X021740Y004005D01*
X021970Y003775D01*
X022540Y003775D01*
X023580Y003565D02*
X021140Y003565D01*
X020330Y002755D01*
X016040Y002755D01*
X016030Y002745D01*
X015780Y002955D02*
X015580Y002755D01*
X011960Y002755D01*
X011650Y002445D01*
X011650Y001845D01*
X011980Y001845D01*
X012230Y001595D01*
X012233Y001595D01*
X012240Y002415D02*
X013060Y001595D01*
X013810Y001595D01*
X013817Y001595D01*
X013840Y001605D01*
X014440Y002205D01*
X015570Y002205D01*
X015400Y002422D01*
X015400Y002415D01*
X016220Y001595D01*
X016980Y001595D01*
X016983Y001595D01*
X017010Y001605D01*
X017140Y001605D01*
X017400Y001865D01*
X018030Y001865D02*
X018280Y001865D01*
X018540Y001605D01*
X018567Y001595D01*
X018570Y001595D01*
X018930Y001955D01*
X020570Y001955D01*
X021460Y002845D01*
X022570Y002845D01*
X022570Y003355D01*
X022320Y003175D02*
X021740Y003175D01*
X021733Y003178D01*
X022570Y002845D02*
X022980Y002845D01*
X023310Y003175D01*
X023317Y003178D01*
X023340Y003195D01*
X023590Y003445D01*
X024260Y003445D01*
X023800Y003785D02*
X023580Y003565D01*
X024900Y003185D02*
X024900Y003178D01*
X024900Y003185D02*
X025100Y003385D01*
X025670Y003385D01*
X025940Y003595D02*
X026350Y003185D01*
X026480Y003185D01*
X026483Y003178D01*
X026900Y003035D02*
X027450Y003035D01*
X027640Y002845D01*
X028600Y002845D01*
X029000Y003245D01*
X029650Y003175D02*
X029650Y003178D01*
X029650Y003175D02*
X030390Y002435D01*
X031210Y002435D01*
X031233Y002422D01*
X031240Y002415D01*
X031950Y001705D01*
X031510Y001265D01*
X029980Y001265D01*
X029670Y001575D01*
X029650Y001595D01*
X029650Y001595D01*
X029240Y002005D01*
X028500Y001265D01*
X026830Y001265D01*
X026510Y001585D01*
X026483Y001595D01*
X026480Y001595D01*
X026150Y001925D01*
X023650Y001925D01*
X023340Y001615D01*
X023317Y001595D01*
X023310Y001585D01*
X022990Y001265D01*
X022150Y001265D01*
X022150Y001285D01*
X022150Y001265D02*
X020470Y001265D01*
X020150Y001585D01*
X020150Y001595D01*
X020130Y001565D01*
X019140Y001565D01*
X018840Y001265D01*
X006220Y001265D01*
X005920Y001565D01*
X005900Y001595D01*
X005900Y001585D01*
X005580Y001265D01*
X006680Y002395D02*
X007480Y001595D01*
X007483Y001595D01*
X008240Y002415D02*
X009060Y001595D01*
X009067Y001595D01*
X006680Y002395D02*
X006590Y002395D01*
X007060Y002585D02*
X007310Y002585D01*
X007460Y002435D01*
X007483Y002422D01*
X007490Y002415D01*
X008240Y002415D01*
X011860Y002055D02*
X012210Y002405D01*
X012233Y002422D01*
X012240Y002415D01*
X013817Y002422D02*
X013820Y002415D01*
X014470Y002415D01*
X016030Y002445D02*
X016960Y002445D01*
X016980Y002425D01*
X016983Y002422D01*
X017010Y002415D01*
X017480Y002415D01*
X017610Y002285D01*
X017830Y002495D02*
X018490Y002495D01*
X018560Y002425D01*
X018567Y002422D01*
X019810Y002075D02*
X020130Y002395D01*
X020150Y002422D01*
X020150Y002415D01*
X020310Y002255D01*
X020570Y002255D01*
X021030Y002115D02*
X021100Y002045D01*
X028310Y002045D01*
X028490Y001865D01*
X028580Y001655D02*
X028870Y001945D01*
X029240Y002005D02*
X028840Y002405D01*
X028580Y002405D01*
X028580Y002425D01*
X028580Y002405D02*
X028090Y002405D01*
X028067Y002422D01*
X028060Y002425D01*
X027890Y002425D01*
X027560Y002755D01*
X025230Y002755D01*
X024900Y002425D01*
X024900Y002422D01*
X023940Y002255D02*
X023480Y002255D01*
X023320Y002415D01*
X023317Y002422D01*
X022150Y002255D02*
X021900Y002255D01*
X021740Y002415D01*
X021733Y002422D01*
X019810Y002075D02*
X016600Y002075D01*
X015400Y001595D02*
X015290Y001595D01*
X014980Y001905D01*
X015400Y001595D02*
X015400Y001595D01*
X011910Y000725D02*
X019680Y000725D01*
X019470Y000505D02*
X019670Y000305D01*
X033520Y000305D01*
X034390Y001175D01*
X033640Y001025D02*
X025160Y001025D01*
X025020Y001165D01*
X027650Y001835D02*
X027890Y001595D01*
X028060Y001595D01*
X028067Y001595D01*
X028090Y001605D01*
X028140Y001655D01*
X028580Y001655D01*
X029650Y002415D02*
X030470Y001595D01*
X031230Y001595D01*
X031233Y001595D01*
X031950Y001705D02*
X032390Y001265D01*
X033090Y001265D01*
X033130Y001305D01*
X033150Y001305D01*
X033150Y001435D01*
X033310Y001595D01*
X033750Y001595D01*
X033120Y000805D02*
X033040Y000725D01*
X022150Y000725D01*
X021150Y000515D02*
X026680Y000515D01*
X021733Y001595D02*
X021730Y001595D01*
X020970Y001595D01*
X020940Y001625D01*
X020940Y000725D02*
X021150Y000515D01*
X026490Y002415D02*
X026650Y002255D01*
X027230Y002255D01*
X026490Y002415D02*
X026483Y002422D01*
X029120Y002735D02*
X029330Y002735D01*
X029630Y002435D01*
X029650Y002422D01*
X029650Y002415D01*
X032550Y003445D02*
X032810Y003185D01*
X032817Y003178D01*
X032550Y003445D02*
X032190Y003445D01*
X029650Y004005D02*
X029650Y004005D01*
X029510Y003865D01*
X029230Y003865D01*
X028580Y004135D02*
X028190Y004135D01*
X028070Y004015D01*
X028067Y004005D01*
X025320Y004545D02*
X025110Y004545D01*
X024900Y004755D01*
X024900Y004762D01*
X020830Y006485D02*
X020570Y006225D01*
X020830Y006485D02*
X020970Y006345D01*
X021730Y006345D01*
X021733Y006345D01*
X021760Y006355D01*
X022490Y006355D01*
X018210Y005005D02*
X017230Y005005D01*
X016990Y004765D01*
X016983Y004762D01*
X016570Y004445D02*
X016000Y003875D01*
X015840Y003875D01*
X015820Y003855D01*
X015550Y003855D01*
X015400Y004005D01*
X015400Y004005D01*
X015290Y003295D02*
X014660Y003295D01*
X015290Y003295D02*
X015400Y003185D01*
X015400Y003178D01*
X015420Y003205D01*
X015510Y003295D01*
X016450Y003295D01*
X016760Y002955D02*
X016980Y003175D01*
X016983Y003178D01*
X017010Y003165D01*
X017830Y003165D01*
X018030Y002965D01*
X018460Y003285D02*
X018560Y003185D01*
X018567Y003178D01*
X018460Y003285D02*
X018150Y003285D01*
X016760Y002955D02*
X015820Y002955D01*
X015820Y002975D01*
X015820Y002955D02*
X015780Y002955D01*
X012710Y004435D02*
X012390Y004755D01*
X012260Y004755D01*
X012233Y004762D01*
X012230Y004765D01*
X012110Y004885D01*
X011070Y004885D01*
X010650Y004765D02*
X010650Y004762D01*
X010650Y004765D02*
X010500Y004915D01*
X010080Y004915D01*
X009067Y004762D02*
X009060Y004765D01*
X008900Y004925D01*
X008430Y004925D01*
X007480Y004015D02*
X007160Y004335D01*
X005630Y004335D01*
X007480Y004015D02*
X007483Y004005D01*
X009067Y004005D02*
X009070Y004005D01*
X009210Y003865D01*
X009490Y003865D01*
X013070Y004915D02*
X013660Y004915D01*
X013810Y004765D01*
X013817Y004762D01*
X014240Y004885D02*
X015280Y004885D01*
X015400Y004765D01*
X015400Y004762D01*
X015420Y004785D01*
X015690Y004785D01*
X015820Y004915D01*
X013817Y005588D02*
X013810Y005595D01*
X013530Y005595D01*
X013400Y005725D01*
X004317Y006345D02*
X004310Y006345D01*
X003710Y006345D01*
X001150Y006335D02*
X001150Y006345D01*
X001150Y006335D02*
X000700Y006335D01*
X000820Y005915D02*
X000820Y005095D01*
X001150Y004765D01*
X001150Y004762D01*
X000560Y003785D02*
X000560Y009735D01*
X010250Y009735D01*
X009080Y009525D02*
X013060Y009525D01*
X014000Y009505D02*
X020990Y009505D01*
X021310Y009535D02*
X021320Y009545D01*
X023590Y009545D01*
X023970Y009925D01*
X028190Y009925D01*
X028280Y009835D01*
X028050Y009635D02*
X027880Y009805D01*
X024420Y009805D01*
X024140Y009525D01*
X023500Y009755D02*
X023490Y009745D01*
X021300Y009745D01*
X021010Y010035D01*
X017060Y010035D01*
X016890Y009865D01*
X019110Y009295D02*
X011410Y009295D01*
X011390Y009315D01*
X011810Y008895D02*
X011940Y008765D01*
X012230Y008765D01*
X012233Y008755D01*
X012260Y008755D01*
X013380Y008755D01*
X013380Y008925D01*
X011070Y008605D02*
X010920Y008755D01*
X010650Y008755D01*
X010650Y008755D01*
X022660Y009955D02*
X022750Y010045D01*
X028740Y010045D01*
X029160Y009625D01*
X024900Y008755D02*
X024900Y008755D01*
X024620Y008755D01*
X024480Y008615D01*
X027650Y007085D02*
X027730Y007165D01*
X028060Y007165D01*
X028067Y007172D01*
X034400Y005585D02*
X034400Y005588D01*
X034400Y005585D02*
X034500Y005485D01*
X035090Y005485D01*
X035090Y005065D01*
X034700Y005065D01*
X034670Y005095D01*
X034400Y004762D02*
X034400Y004385D01*
X035260Y005485D02*
X035980Y004765D01*
X035983Y004762D01*
X036010Y004775D01*
X036300Y004775D01*
X036400Y004875D01*
X036600Y004975D02*
X037340Y004975D01*
X037540Y004775D01*
X037567Y004762D01*
X037570Y004755D01*
X037570Y004015D01*
X037567Y004005D01*
X038400Y004005D02*
X039150Y004005D01*
X039150Y004005D01*
X038670Y003665D02*
X039150Y003185D01*
X039150Y003178D01*
X037940Y003545D02*
X037590Y003195D01*
X037567Y003178D01*
X037560Y003185D01*
X036810Y003185D01*
X036700Y003295D01*
X036250Y002845D02*
X034730Y002845D01*
X035983Y002422D02*
X035990Y002415D01*
X036740Y002415D01*
X036850Y002305D01*
X037567Y002422D02*
X037570Y002415D01*
X037900Y002415D01*
X037900Y001265D01*
X038330Y002415D02*
X039150Y001595D01*
X039150Y001595D01*
X039150Y002422D02*
X039150Y002425D01*
X039480Y002755D01*
X039480Y005585D01*
X039150Y004765D02*
X038330Y005585D01*
X038350Y005605D01*
X038330Y005585D02*
X037570Y005585D01*
X037567Y005588D01*
X036600Y004975D02*
X035990Y005585D01*
X035983Y005588D01*
X035960Y005605D01*
X035670Y005895D01*
X035260Y005485D02*
X035090Y005485D01*
X039150Y004765D02*
X039150Y004762D01*
X038330Y002415D02*
X037900Y002415D01*
X036400Y007165D02*
X035990Y007165D01*
X035983Y007172D01*
X004317Y003178D02*
X004310Y003175D01*
X004030Y002895D01*
X003540Y002895D01*
X001920Y002405D02*
X001170Y002405D01*
X001150Y002422D01*
X001150Y003178D01*
X001140Y003205D01*
X000560Y003785D01*
D13*
X003360Y003385D03*
X003540Y002895D03*
X003150Y002505D03*
X006570Y002775D03*
X007060Y002585D03*
X008440Y003205D03*
X009490Y003445D03*
X009490Y003865D03*
X011810Y003445D03*
X014240Y003715D03*
X014990Y003505D03*
X014660Y003295D03*
X015820Y002975D03*
X016030Y002745D03*
X016030Y002445D03*
X016600Y002075D03*
X017400Y001865D03*
X018030Y001865D03*
X017610Y002285D03*
X017830Y002495D03*
X018030Y002965D03*
X018150Y003285D03*
X019260Y003055D03*
X018240Y003585D03*
X018030Y003805D03*
X016560Y003915D03*
X016330Y003715D03*
X015820Y003855D03*
X016450Y003295D03*
X014470Y002415D03*
X014980Y001905D03*
X015770Y001055D03*
X016490Y000935D03*
X018800Y000935D03*
X019020Y001145D03*
X019680Y000725D03*
X019470Y000505D03*
X020940Y000725D03*
X022150Y000725D03*
X022150Y001285D03*
X020940Y001625D03*
X021030Y002115D03*
X020570Y002255D03*
X022150Y002255D03*
X023940Y002255D03*
X024480Y001715D03*
X025020Y001165D03*
X027650Y001835D03*
X028490Y001865D03*
X028870Y001945D03*
X027230Y002255D03*
X028580Y002425D03*
X029120Y002735D03*
X029000Y003245D03*
X029230Y003445D03*
X029230Y003865D03*
X028580Y004135D03*
X028580Y004555D03*
X027430Y004855D03*
X027150Y005005D03*
X026900Y005425D03*
X027640Y005395D03*
X027530Y005805D03*
X028790Y005795D03*
X030250Y005445D03*
X031650Y005445D03*
X032400Y005445D03*
X032400Y005745D03*
X031710Y006125D03*
X030720Y006255D03*
X031980Y006785D03*
X031950Y007355D03*
X032190Y007715D03*
X031980Y008045D03*
X030810Y008065D03*
X030290Y007595D03*
X030100Y007355D03*
X030810Y007385D03*
X028790Y008135D03*
X028490Y008135D03*
X027650Y008045D03*
X027310Y008045D03*
X026010Y008135D03*
X025590Y008195D03*
X024480Y008615D03*
X023740Y008725D03*
X022760Y008975D03*
X022640Y008635D03*
X022720Y008215D03*
X022410Y008215D03*
X022150Y008045D03*
X021310Y007915D03*
X020730Y008125D03*
X019400Y008185D03*
X019400Y007885D03*
X018990Y007895D03*
X017700Y008345D03*
X017400Y008045D03*
X015820Y008145D03*
X014520Y008485D03*
X013230Y008065D03*
X011810Y008065D03*
X011390Y007855D03*
X010230Y008065D03*
X008650Y008065D03*
X008430Y007855D03*
X007860Y007555D03*
X007060Y008255D03*
X008430Y008465D03*
X009690Y008605D03*
X011070Y008605D03*
X011810Y008895D03*
X013170Y008965D03*
X011390Y009315D03*
X010250Y009735D03*
X009080Y009525D03*
X007060Y009095D03*
X004740Y008485D03*
X004770Y008065D03*
X005540Y007555D03*
X003150Y006905D03*
X003380Y006315D03*
X003710Y006345D03*
X006300Y005925D03*
X007130Y005965D03*
X006830Y006415D03*
X006530Y006715D03*
X008520Y006585D03*
X011480Y006555D03*
X013400Y006985D03*
X014310Y006615D03*
X014980Y006495D03*
X016230Y006345D03*
X016450Y006555D03*
X017400Y006615D03*
X018030Y006605D03*
X017610Y006395D03*
X019400Y005915D03*
X018990Y005565D03*
X018980Y005265D03*
X019190Y005015D03*
X020570Y004775D03*
X020750Y005025D03*
X021310Y005295D03*
X020570Y005445D03*
X020960Y005585D03*
X022300Y005665D03*
X022900Y005775D03*
X022510Y005445D03*
X022740Y005025D03*
X022530Y004805D03*
X022270Y004635D03*
X021100Y004135D03*
X022320Y003985D03*
X022540Y003775D03*
X022570Y003355D03*
X022320Y003175D03*
X024260Y003445D03*
X024560Y003575D03*
X023800Y003785D03*
X025320Y004125D03*
X026060Y003775D03*
X025670Y003385D03*
X026900Y003035D03*
X032190Y003445D03*
X032400Y002865D03*
X032190Y002445D03*
X033180Y002055D03*
X035390Y001875D03*
X033400Y001385D03*
X034390Y001175D03*
X033640Y001025D03*
X033120Y000805D03*
X026680Y000515D03*
X034900Y003295D03*
X032400Y004085D03*
X032460Y004385D03*
X030810Y004885D03*
X031650Y005025D03*
X034880Y005275D03*
X036400Y004875D03*
X038350Y005605D03*
X038400Y004005D03*
X037940Y003545D03*
X026900Y006645D03*
X025810Y006335D03*
X025510Y006345D03*
X024480Y006515D03*
X024060Y006515D03*
X022600Y006765D03*
X022900Y007065D03*
X022150Y007095D03*
X022420Y007545D03*
X024160Y008075D03*
X024480Y007385D03*
X025320Y007145D03*
X025800Y006935D03*
X026060Y007275D03*
X027310Y007385D03*
X027610Y007385D03*
X027650Y007085D03*
X024480Y007085D03*
X022490Y006355D03*
X023850Y006125D03*
X024480Y005425D03*
X024060Y005195D03*
X025320Y005005D03*
X025320Y005425D03*
X025860Y005425D03*
X025320Y004545D03*
X020570Y006225D03*
X019730Y006435D03*
X018030Y007035D03*
X017400Y007035D03*
X018010Y007355D03*
X019730Y007295D03*
X014980Y007185D03*
X014730Y007365D03*
X013440Y007575D03*
X015820Y008915D03*
X014000Y009505D03*
X013060Y009525D03*
X016890Y009865D03*
X019110Y009295D03*
X020570Y009235D03*
X021150Y009175D03*
X020990Y009505D03*
X021310Y009535D03*
X022640Y009335D03*
X024140Y009525D03*
X023500Y009755D03*
X022660Y009955D03*
X025320Y009345D03*
X025500Y009595D03*
X024480Y009105D03*
X026590Y009175D03*
X027310Y008685D03*
X027520Y008465D03*
X028490Y008605D03*
X030280Y008605D03*
X031650Y008605D03*
X032400Y008605D03*
X033560Y008605D03*
X033980Y008545D03*
X033240Y008065D03*
X035130Y008135D03*
X036420Y008045D03*
X036640Y007835D03*
X037990Y007935D03*
X038730Y008555D03*
X037150Y008555D03*
X036400Y008555D03*
X035250Y009625D03*
X028920Y009505D03*
X028050Y009635D03*
X028280Y009835D03*
X021150Y008605D03*
X018990Y008605D03*
X013400Y005725D03*
X012650Y005335D03*
X013070Y004915D03*
X014240Y004885D03*
X015820Y004915D03*
X016570Y004445D03*
X015910Y005365D03*
X016120Y005585D03*
X018030Y005465D03*
X012710Y004435D03*
X011070Y004885D03*
X010080Y004915D03*
X009390Y005175D03*
X009600Y005395D03*
X010230Y005725D03*
X008430Y004925D03*
X006320Y004905D03*
X005480Y005325D03*
X004900Y005375D03*
X003830Y004485D03*
X006850Y003655D03*
X006480Y003425D03*
X011860Y002055D03*
X011440Y001635D03*
X011910Y000725D03*
X005760Y000935D03*
X036400Y007185D03*
M02*
