G75*
G70*
%OFA0B0*%
%FSLAX24Y24*%
%IPPOS*%
%LPD*%
%AMOC8*
5,1,8,0,0,1.08239X$1,22.5*
%
%ADD10C,0.0000*%
%ADD11R,0.0473X0.0434*%
%ADD12R,0.0512X0.0512*%
%ADD13R,0.0540X0.0260*%
%ADD14R,0.0260X0.0540*%
%ADD15R,0.0374X0.0413*%
%ADD16C,0.0020*%
%ADD17R,0.0827X0.0827*%
%ADD18R,0.0790X0.1540*%
%ADD19R,0.0650X0.0552*%
%ADD20R,0.0520X0.0920*%
%ADD21R,0.1457X0.0906*%
%ADD22R,0.0434X0.0473*%
D10*
X000150Y000175D02*
X000150Y010175D01*
X040150Y010175D01*
X040150Y000175D01*
X000150Y000175D01*
D11*
X022815Y002425D03*
X023485Y002425D03*
X023485Y004425D03*
X022815Y004425D03*
X025900Y009090D03*
X027650Y009090D03*
X029650Y009090D03*
X031650Y009090D03*
X033650Y009090D03*
X035650Y009090D03*
X035650Y009760D03*
X033650Y009760D03*
X031650Y009760D03*
X029650Y009760D03*
X027650Y009760D03*
X025900Y009760D03*
X014400Y009760D03*
X012650Y009760D03*
X010650Y009760D03*
X008650Y009760D03*
X006650Y009760D03*
X004650Y009760D03*
X004650Y009090D03*
X006650Y009090D03*
X008650Y009090D03*
X010650Y009090D03*
X012650Y009090D03*
X014400Y009090D03*
D12*
X015400Y009338D03*
X016983Y009338D03*
X018567Y009338D03*
X020150Y009338D03*
X021733Y009338D03*
X023317Y009338D03*
X024900Y009338D03*
X024900Y008512D03*
X023317Y008512D03*
X021733Y008512D03*
X020150Y008512D03*
X018567Y008512D03*
X016983Y008512D03*
X015400Y008512D03*
D13*
X018460Y006277D03*
X018460Y005962D03*
X018460Y005647D03*
X018460Y005332D03*
X018460Y005018D03*
X018460Y004703D03*
X018460Y004388D03*
X018460Y004073D03*
X021840Y004073D03*
X021840Y004388D03*
X021840Y004703D03*
X021840Y005018D03*
X021840Y005332D03*
X021840Y005647D03*
X021840Y005962D03*
X021840Y006277D03*
D14*
X021252Y006865D03*
X020937Y006865D03*
X020622Y006865D03*
X020307Y006865D03*
X019993Y006865D03*
X019678Y006865D03*
X019363Y006865D03*
X019048Y006865D03*
X019048Y003485D03*
X019363Y003485D03*
X019678Y003485D03*
X019993Y003485D03*
X020307Y003485D03*
X020622Y003485D03*
X020937Y003485D03*
X021252Y003485D03*
D15*
X022924Y003710D03*
X023376Y003710D03*
X022924Y003140D03*
D16*
X023199Y003135D02*
X023554Y003135D01*
X023554Y003117D02*
X023199Y003117D01*
X023199Y003098D02*
X023554Y003098D01*
X023554Y003080D02*
X023199Y003080D01*
X023199Y003061D02*
X023554Y003061D01*
X023554Y003043D02*
X023199Y003043D01*
X023199Y003024D02*
X023554Y003024D01*
X023554Y003006D02*
X023199Y003006D01*
X023199Y002987D02*
X023554Y002987D01*
X023554Y002969D02*
X023199Y002969D01*
X023199Y002950D02*
X023554Y002950D01*
X023554Y002943D02*
X023554Y003336D01*
X023327Y003336D01*
X023199Y003208D01*
X023199Y002943D01*
X023554Y002943D01*
X023554Y003154D02*
X023199Y003154D01*
X023199Y003172D02*
X023554Y003172D01*
X023554Y003191D02*
X023199Y003191D01*
X023200Y003209D02*
X023554Y003209D01*
X023554Y003228D02*
X023218Y003228D01*
X023237Y003246D02*
X023554Y003246D01*
X023554Y003265D02*
X023255Y003265D01*
X023274Y003283D02*
X023554Y003283D01*
X023554Y003302D02*
X023292Y003302D01*
X023311Y003320D02*
X023554Y003320D01*
D17*
X003400Y009175D03*
X001150Y009175D03*
D18*
X033400Y006175D03*
X034400Y006175D03*
X035400Y006175D03*
X035400Y004175D03*
X034400Y004175D03*
X033400Y004175D03*
D19*
X031215Y004289D03*
X028085Y004289D03*
X028085Y006061D03*
X031215Y006061D03*
X012215Y006061D03*
X009085Y006061D03*
X009085Y004289D03*
X012215Y004289D03*
D20*
X006060Y003955D03*
X005150Y003955D03*
X004240Y003955D03*
D21*
X005150Y006395D03*
D22*
X005150Y007340D03*
X003400Y007340D03*
X003400Y008010D03*
X005150Y008010D03*
X005315Y002925D03*
X005985Y002925D03*
X005985Y001925D03*
X005315Y001925D03*
M02*
