%
M48
M72
T01C0.0120
%
T01
X5760Y935
X11440Y1635
X11860Y2055
X14470Y2415
X16030Y2445
X16030Y2745
X15820Y2975
X16450Y3295
X14990Y3505
X14660Y3295
X14240Y3715
X15820Y3855
X16330Y3715
X16560Y3915
X18030Y3805
X18240Y3585
X18150Y3285
X19260Y3055
X18030Y2965
X17830Y2495
X17610Y2285
X16600Y2075
X17400Y1865
X18030Y1865
X19020Y1145
X18800Y935
X19680Y725
X19470Y505
X20940Y725
X22150Y725
X22150Y1285
X20940Y1625
X21030Y2115
X20570Y2255
X22150Y2255
X23940Y2255
X24480Y1715
X25020Y1165
X27650Y1835
X28490Y1865
X28870Y1945
X27230Y2255
X28580Y2425
X29120Y2735
X29000Y3245
X29230Y3445
X29230Y3865
X28580Y4135
X28580Y4555
X27430Y4855
X27150Y5005
X26900Y5425
X27640Y5395
X27530Y5805
X28790Y5795
X30250Y5445
X31650Y5445
X32400Y5445
X32400Y5745
X31710Y6125
X30720Y6255
X31980Y6785
X31950Y7355
X32190Y7715
X31980Y8045
X30810Y8065
X30290Y7595
X30100Y7355
X30810Y7385
X28790Y8135
X28490Y8135
X27650Y8045
X27310Y8045
X26010Y8135
X25590Y8195
X24480Y8615
X23740Y8725
X22760Y8975
X22640Y8635
X22720Y8215
X22410Y8215
X22150Y8045
X21310Y7915
X20730Y8125
X19400Y8185
X19400Y7885
X18990Y7895
X17700Y8345
X17400Y8045
X15820Y8145
X14520Y8485
X13230Y8065
X11810Y8065
X11390Y7855
X10230Y8065
X8650Y8065
X8430Y7855
X7860Y7555
X7060Y8255
X8430Y8465
X9690Y8605
X11070Y8605
X11810Y8895
X13170Y8965
X11390Y9315
X10250Y9735
X9080Y9525
X7060Y9095
X4740Y8485
X4770Y8065
X5540Y7555
X3150Y6905
X3380Y6315
X3710Y6345
X6300Y5925
X7130Y5965
X6830Y6415
X6530Y6715
X8520Y6585
X11480Y6555
X13400Y6985
X14310Y6615
X14980Y6495
X16230Y6345
X16450Y6555
X17400Y6615
X18030Y6605
X17610Y6395
X19400Y5915
X18990Y5565
X18980Y5265
X19190Y5015
X20570Y4775
X20750Y5025
X21310Y5295
X20570Y5445
X20960Y5585
X22300Y5665
X22900Y5775
X22510Y5445
X22740Y5025
X22530Y4805
X22270Y4635
X21100Y4135
X22320Y3985
X22540Y3775
X22570Y3355
X22320Y3175
X24260Y3445
X24560Y3575
X23800Y3785
X25320Y4125
X26060Y3775
X25670Y3385
X26900Y3035
X32190Y3445
X32400Y2865
X32190Y2445
X33180Y2055
X35390Y1875
X33400Y1385
X34390Y1175
X33640Y1025
X33120Y805
X26680Y515
X16490Y935
X15770Y1055
X14980Y1905
X11910Y725
X7060Y2585
X6570Y2775
X8440Y3205
X9490Y3445
X9490Y3865
X11810Y3445
X12710Y4435
X13070Y4915
X14240Y4885
X15820Y4915
X16570Y4445
X15910Y5365
X16120Y5585
X18030Y5465
X20570Y6225
X19730Y6435
X18030Y7035
X17400Y7035
X18010Y7355
X19730Y7295
X22150Y7095
X22900Y7065
X22600Y6765
X24060Y6515
X24480Y6515
X25510Y6345
X25810Y6335
X26900Y6645
X25800Y6935
X25320Y7145
X26060Y7275
X27310Y7385
X27610Y7385
X27650Y7085
X24480Y7085
X24480Y7385
X22420Y7545
X24160Y8075
X21150Y8605
X21150Y9175
X20570Y9235
X20990Y9505
X21310Y9535
X22640Y9335
X24140Y9525
X23500Y9755
X22660Y9955
X25320Y9345
X25500Y9595
X24480Y9105
X26590Y9175
X27310Y8685
X27520Y8465
X28490Y8605
X30280Y8605
X31650Y8605
X32400Y8605
X33560Y8605
X33980Y8545
X33240Y8065
X35130Y8135
X36420Y8045
X36640Y7835
X37990Y7935
X38730Y8555
X37150Y8555
X36400Y8555
X35250Y9625
X28920Y9505
X28050Y9635
X28280Y9835
X19110Y9295
X18990Y8605
X15820Y8915
X14000Y9505
X13060Y9525
X16890Y9865
X13440Y7575
X14730Y7365
X14980Y7185
X13400Y5725
X12650Y5335
X11070Y4885
X10080Y4915
X9390Y5175
X9600Y5395
X10230Y5725
X8430Y4925
X6320Y4905
X5480Y5325
X4900Y5375
X3830Y4485
X6850Y3655
X6480Y3425
X3540Y2895
X3150Y2505
X3360Y3385
X22490Y6355
X23850Y6125
X24480Y5425
X24060Y5195
X25320Y5005
X25320Y5425
X25860Y5425
X25320Y4545
X30810Y4885
X31650Y5025
X32460Y4385
X32400Y4085
X34900Y3295
X37940Y3545
X38400Y4005
X36400Y4875
X34880Y5275
X38350Y5605
X36400Y7185
M30
