G75*
G70*
%OFA0B0*%
%FSLAX24Y24*%
%IPPOS*%
%LPD*%
%AMOC8*
5,1,8,0,0,1.08239X$1,22.5*
%
%ADD10C,0.0000*%
%ADD11C,0.0040*%
%ADD12R,0.0079X0.0079*%
%ADD13C,0.0060*%
%ADD14C,0.0030*%
%ADD15C,0.0100*%
%ADD16C,0.0080*%
D10*
X000150Y000175D02*
X000150Y010175D01*
X040150Y010175D01*
X040150Y000175D01*
X000150Y000175D01*
D11*
X004541Y003542D02*
X004588Y003495D01*
X004681Y003495D01*
X004728Y003542D01*
X004635Y003635D02*
X004588Y003635D01*
X004541Y003588D01*
X004541Y003542D01*
X004588Y003635D02*
X004541Y003682D01*
X004541Y003729D01*
X004588Y003775D01*
X004681Y003775D01*
X004728Y003729D01*
X005451Y003725D02*
X005498Y003772D01*
X005591Y003772D01*
X005638Y003725D01*
X005451Y003725D02*
X005451Y003678D01*
X005638Y003491D01*
X005451Y003491D01*
X006302Y003495D02*
X006489Y003495D01*
X006396Y003495D02*
X006396Y003775D01*
X006489Y003682D01*
X006130Y005215D02*
X005977Y005215D01*
X006053Y005215D02*
X006053Y005675D01*
X005977Y005675D02*
X006130Y005675D01*
X005823Y005599D02*
X005823Y005292D01*
X005746Y005215D01*
X005593Y005215D01*
X005516Y005292D01*
X005363Y005215D02*
X005056Y005215D01*
X005363Y005215D02*
X005056Y005522D01*
X005056Y005599D01*
X005132Y005675D01*
X005286Y005675D01*
X005363Y005599D01*
X005516Y005599D02*
X005593Y005675D01*
X005746Y005675D01*
X005823Y005599D01*
X004240Y006195D02*
X004240Y006475D01*
X004380Y006335D01*
X004193Y006335D01*
X004054Y007445D02*
X003747Y007445D01*
X003670Y007522D01*
X003670Y007675D01*
X003747Y007752D01*
X003747Y007905D02*
X003670Y007982D01*
X003670Y008136D01*
X003747Y008212D01*
X003823Y008212D01*
X003900Y008136D01*
X003900Y008059D01*
X003900Y008136D02*
X003977Y008212D01*
X004054Y008212D01*
X004130Y008136D01*
X004130Y007982D01*
X004054Y007905D01*
X004054Y007752D02*
X004130Y007675D01*
X004130Y007522D01*
X004054Y007445D01*
X005420Y007522D02*
X005420Y007675D01*
X005497Y007752D01*
X005650Y007905D02*
X005650Y008212D01*
X005420Y008136D02*
X005880Y008136D01*
X005650Y007905D01*
X005804Y007752D02*
X005880Y007675D01*
X005880Y007522D01*
X005804Y007445D01*
X005497Y007445D01*
X005420Y007522D01*
X005380Y009195D02*
X004920Y009195D01*
X005073Y009195D02*
X005073Y009425D01*
X005150Y009502D01*
X005304Y009502D01*
X005380Y009425D01*
X005380Y009195D01*
X005073Y009348D02*
X004920Y009502D01*
X004997Y009655D02*
X004920Y009732D01*
X004920Y009886D01*
X004997Y009962D01*
X005304Y009962D01*
X005380Y009886D01*
X005380Y009732D01*
X005304Y009655D01*
X005227Y009655D01*
X005150Y009732D01*
X005150Y009962D01*
X003774Y009992D02*
X003774Y009685D01*
X003697Y009608D01*
X003544Y009608D01*
X003467Y009685D01*
X003467Y009839D01*
X003620Y009839D01*
X003467Y009992D02*
X003544Y010069D01*
X003697Y010069D01*
X003774Y009992D01*
X003313Y010069D02*
X003006Y009608D01*
X003006Y010069D01*
X002853Y010069D02*
X002623Y010069D01*
X002546Y009992D01*
X002546Y009685D01*
X002623Y009608D01*
X002853Y009608D01*
X002853Y010069D01*
X003313Y010069D02*
X003313Y009608D01*
X001524Y009762D02*
X001524Y010069D01*
X001217Y010069D02*
X001217Y009762D01*
X001370Y009608D01*
X001524Y009762D01*
X001063Y009608D02*
X000910Y009608D01*
X000987Y009608D02*
X000987Y010069D01*
X001063Y010069D02*
X000910Y010069D01*
X000756Y010069D02*
X000449Y009608D01*
X000449Y010069D01*
X000756Y010069D02*
X000756Y009608D01*
X012920Y009655D02*
X012920Y009962D01*
X012920Y009809D02*
X013380Y009809D01*
X013227Y009655D01*
X013304Y009502D02*
X013150Y009502D01*
X013073Y009425D01*
X013073Y009195D01*
X012920Y009195D02*
X013380Y009195D01*
X013380Y009425D01*
X013304Y009502D01*
X013073Y009348D02*
X012920Y009502D01*
X014670Y009502D02*
X014823Y009348D01*
X014823Y009425D02*
X014823Y009195D01*
X014670Y009195D02*
X015130Y009195D01*
X015130Y009425D01*
X015054Y009502D01*
X014900Y009502D01*
X014823Y009425D01*
X014670Y009655D02*
X014977Y009962D01*
X015054Y009962D01*
X015130Y009886D01*
X015130Y009732D01*
X015054Y009655D01*
X014670Y009655D02*
X014670Y009962D01*
X026170Y009886D02*
X026170Y009732D01*
X026247Y009655D01*
X026400Y009809D02*
X026400Y009886D01*
X026323Y009962D01*
X026247Y009962D01*
X026170Y009886D01*
X026400Y009886D02*
X026477Y009962D01*
X026554Y009962D01*
X026630Y009886D01*
X026630Y009732D01*
X026554Y009655D01*
X026554Y009502D02*
X026400Y009502D01*
X026323Y009425D01*
X026323Y009195D01*
X026170Y009195D02*
X026630Y009195D01*
X026630Y009425D01*
X026554Y009502D01*
X026323Y009348D02*
X026170Y009502D01*
X027920Y009502D02*
X028073Y009348D01*
X028073Y009425D02*
X028073Y009195D01*
X027920Y009195D02*
X028380Y009195D01*
X028380Y009425D01*
X028304Y009502D01*
X028150Y009502D01*
X028073Y009425D01*
X028150Y009655D02*
X028150Y009962D01*
X027920Y009886D02*
X028380Y009886D01*
X028150Y009655D01*
X029920Y009732D02*
X029997Y009655D01*
X029920Y009732D02*
X029920Y009886D01*
X029997Y009962D01*
X030150Y009962D01*
X030227Y009886D01*
X030227Y009809D01*
X030150Y009655D01*
X030380Y009655D01*
X030380Y009962D01*
X031920Y009886D02*
X031920Y009732D01*
X031997Y009655D01*
X032150Y009655D01*
X032150Y009886D01*
X032073Y009962D01*
X031997Y009962D01*
X031920Y009886D01*
X032150Y009655D02*
X032304Y009809D01*
X032380Y009962D01*
X033920Y009655D02*
X033997Y009655D01*
X034304Y009962D01*
X034380Y009962D01*
X034380Y009655D01*
X034304Y009502D02*
X034150Y009502D01*
X034073Y009425D01*
X034073Y009195D01*
X033920Y009195D02*
X034380Y009195D01*
X034380Y009425D01*
X034304Y009502D01*
X034073Y009348D02*
X033920Y009502D01*
X032380Y009425D02*
X032380Y009195D01*
X031920Y009195D01*
X032073Y009195D02*
X032073Y009425D01*
X032150Y009502D01*
X032304Y009502D01*
X032380Y009425D01*
X032073Y009348D02*
X031920Y009502D01*
X030380Y009425D02*
X030380Y009195D01*
X029920Y009195D01*
X030073Y009195D02*
X030073Y009425D01*
X030150Y009502D01*
X030304Y009502D01*
X030380Y009425D01*
X030073Y009348D02*
X029920Y009502D01*
X035920Y009502D02*
X036073Y009348D01*
X036073Y009425D02*
X036073Y009195D01*
X035920Y009195D02*
X036380Y009195D01*
X036380Y009425D01*
X036304Y009502D01*
X036150Y009502D01*
X036073Y009425D01*
X036073Y009655D02*
X036150Y009732D01*
X036150Y009886D01*
X036073Y009962D01*
X035997Y009962D01*
X035920Y009886D01*
X035920Y009732D01*
X035997Y009655D01*
X036073Y009655D01*
X036150Y009732D02*
X036227Y009655D01*
X036304Y009655D01*
X036380Y009732D01*
X036380Y009886D01*
X036304Y009962D01*
X036227Y009962D01*
X036150Y009886D01*
X035727Y007655D02*
X035573Y007655D01*
X035650Y007655D02*
X035650Y007272D01*
X035727Y007195D01*
X035803Y007195D01*
X035880Y007272D01*
X035420Y007195D02*
X035113Y007195D01*
X035266Y007195D02*
X035266Y007655D01*
X035420Y007502D01*
X023380Y005079D02*
X023380Y004772D01*
X023303Y004695D01*
X023150Y004695D01*
X023073Y004772D01*
X022920Y004695D02*
X022613Y004695D01*
X022766Y004695D02*
X022766Y005155D01*
X022920Y005002D01*
X023073Y005079D02*
X023150Y005155D01*
X023303Y005155D01*
X023380Y005079D01*
X022170Y003792D02*
X022170Y003485D01*
X022170Y003638D02*
X022630Y003638D01*
X022477Y003485D01*
X022554Y003331D02*
X022247Y003331D01*
X022170Y003254D01*
X022170Y003101D01*
X022247Y003024D01*
X022554Y003024D01*
X022630Y003101D01*
X022630Y003254D01*
X022554Y003331D01*
X022323Y003178D02*
X022170Y003331D01*
X023110Y002155D02*
X023264Y002155D01*
X023340Y002079D01*
X023494Y002079D02*
X023571Y002155D01*
X023724Y002155D01*
X023801Y002079D01*
X023801Y001772D01*
X023724Y001695D01*
X023571Y001695D01*
X023494Y001772D01*
X023340Y001695D02*
X023033Y002002D01*
X023033Y002079D01*
X023110Y002155D01*
X023033Y001695D02*
X023340Y001695D01*
D12*
X023317Y008964D03*
X024900Y008964D03*
X021733Y008964D03*
X020150Y008964D03*
X018567Y008964D03*
X016983Y008964D03*
X015400Y008964D03*
D13*
X018770Y006555D02*
X021390Y006555D01*
X021530Y006415D01*
X021530Y003795D01*
X018770Y003795D01*
X018770Y006555D01*
X021089Y006255D02*
X021091Y006278D01*
X021097Y006301D01*
X021106Y006322D01*
X021119Y006342D01*
X021135Y006359D01*
X021153Y006373D01*
X021173Y006384D01*
X021195Y006392D01*
X021218Y006396D01*
X021242Y006396D01*
X021265Y006392D01*
X021287Y006384D01*
X021307Y006373D01*
X021325Y006359D01*
X021341Y006342D01*
X021354Y006322D01*
X021363Y006301D01*
X021369Y006278D01*
X021371Y006255D01*
X021369Y006232D01*
X021363Y006209D01*
X021354Y006188D01*
X021341Y006168D01*
X021325Y006151D01*
X021307Y006137D01*
X021287Y006126D01*
X021265Y006118D01*
X021242Y006114D01*
X021218Y006114D01*
X021195Y006118D01*
X021173Y006126D01*
X021153Y006137D01*
X021135Y006151D01*
X021119Y006168D01*
X021106Y006188D01*
X021097Y006209D01*
X021091Y006232D01*
X021089Y006255D01*
D14*
X021128Y007190D02*
X021225Y007190D01*
X021177Y007190D02*
X021177Y007480D01*
X021225Y007480D02*
X021128Y007480D01*
X021029Y007432D02*
X021029Y007238D01*
X020980Y007190D01*
X020883Y007190D01*
X020835Y007238D01*
X020734Y007190D02*
X020540Y007190D01*
X020637Y007190D02*
X020637Y007480D01*
X020734Y007383D01*
X020835Y007432D02*
X020883Y007480D01*
X020980Y007480D01*
X021029Y007432D01*
D15*
X028469Y006356D02*
X030831Y006356D01*
X030831Y003994D01*
X028469Y003994D01*
X028469Y006356D01*
X028961Y005175D02*
X028963Y005227D01*
X028969Y005279D01*
X028979Y005330D01*
X028992Y005380D01*
X029010Y005430D01*
X029031Y005477D01*
X029055Y005523D01*
X029084Y005567D01*
X029115Y005609D01*
X029149Y005648D01*
X029186Y005685D01*
X029226Y005718D01*
X029269Y005749D01*
X029313Y005776D01*
X029359Y005800D01*
X029408Y005820D01*
X029457Y005836D01*
X029508Y005849D01*
X029559Y005858D01*
X029611Y005863D01*
X029663Y005864D01*
X029715Y005861D01*
X029767Y005854D01*
X029818Y005843D01*
X029868Y005829D01*
X029917Y005810D01*
X029964Y005788D01*
X030009Y005763D01*
X030053Y005734D01*
X030094Y005702D01*
X030133Y005667D01*
X030168Y005629D01*
X030201Y005588D01*
X030231Y005546D01*
X030257Y005501D01*
X030280Y005454D01*
X030299Y005405D01*
X030315Y005355D01*
X030327Y005305D01*
X030335Y005253D01*
X030339Y005201D01*
X030339Y005149D01*
X030335Y005097D01*
X030327Y005045D01*
X030315Y004995D01*
X030299Y004945D01*
X030280Y004896D01*
X030257Y004849D01*
X030231Y004804D01*
X030201Y004762D01*
X030168Y004721D01*
X030133Y004683D01*
X030094Y004648D01*
X030053Y004616D01*
X030009Y004587D01*
X029964Y004562D01*
X029917Y004540D01*
X029868Y004521D01*
X029818Y004507D01*
X029767Y004496D01*
X029715Y004489D01*
X029663Y004486D01*
X029611Y004487D01*
X029559Y004492D01*
X029508Y004501D01*
X029457Y004514D01*
X029408Y004530D01*
X029359Y004550D01*
X029313Y004574D01*
X029269Y004601D01*
X029226Y004632D01*
X029186Y004665D01*
X029149Y004702D01*
X029115Y004741D01*
X029084Y004783D01*
X029055Y004827D01*
X029031Y004873D01*
X029010Y004920D01*
X028992Y004970D01*
X028979Y005020D01*
X028969Y005071D01*
X028963Y005123D01*
X028961Y005175D01*
X011831Y006356D02*
X011831Y003994D01*
X009469Y003994D01*
X009469Y006356D01*
X011831Y006356D01*
X009961Y005175D02*
X009963Y005227D01*
X009969Y005279D01*
X009979Y005330D01*
X009992Y005380D01*
X010010Y005430D01*
X010031Y005477D01*
X010055Y005523D01*
X010084Y005567D01*
X010115Y005609D01*
X010149Y005648D01*
X010186Y005685D01*
X010226Y005718D01*
X010269Y005749D01*
X010313Y005776D01*
X010359Y005800D01*
X010408Y005820D01*
X010457Y005836D01*
X010508Y005849D01*
X010559Y005858D01*
X010611Y005863D01*
X010663Y005864D01*
X010715Y005861D01*
X010767Y005854D01*
X010818Y005843D01*
X010868Y005829D01*
X010917Y005810D01*
X010964Y005788D01*
X011009Y005763D01*
X011053Y005734D01*
X011094Y005702D01*
X011133Y005667D01*
X011168Y005629D01*
X011201Y005588D01*
X011231Y005546D01*
X011257Y005501D01*
X011280Y005454D01*
X011299Y005405D01*
X011315Y005355D01*
X011327Y005305D01*
X011335Y005253D01*
X011339Y005201D01*
X011339Y005149D01*
X011335Y005097D01*
X011327Y005045D01*
X011315Y004995D01*
X011299Y004945D01*
X011280Y004896D01*
X011257Y004849D01*
X011231Y004804D01*
X011201Y004762D01*
X011168Y004721D01*
X011133Y004683D01*
X011094Y004648D01*
X011053Y004616D01*
X011009Y004587D01*
X010964Y004562D01*
X010917Y004540D01*
X010868Y004521D01*
X010818Y004507D01*
X010767Y004496D01*
X010715Y004489D01*
X010663Y004486D01*
X010611Y004487D01*
X010559Y004492D01*
X010508Y004501D01*
X010457Y004514D01*
X010408Y004530D01*
X010359Y004550D01*
X010313Y004574D01*
X010269Y004601D01*
X010226Y004632D01*
X010186Y004665D01*
X010149Y004702D01*
X010115Y004741D01*
X010084Y004783D01*
X010055Y004827D01*
X010031Y004873D01*
X010010Y004920D01*
X009992Y004970D01*
X009979Y005020D01*
X009969Y005071D01*
X009963Y005123D01*
X009961Y005175D01*
D16*
X006440Y004475D02*
X006440Y005875D01*
X003860Y005875D01*
X003860Y004475D01*
X006440Y004475D01*
M02*
